<?xml version="1.0" encoding="utf-8"?>
<!-- Generator: Adobe Illustrator 18.0.0, SVG Export Plug-In . SVG Version: 6.00 Build 0)  -->
<!DOCTYPE svg PUBLIC "-//W3C//DTD SVG 1.1//EN" "http://www.w3.org/Graphics/SVG/1.1/DTD/svg11.dtd">
<svg version="1.1" id="Layer_1" xmlns="http://www.w3.org/2000/svg" xmlns:xlink="http://www.w3.org/1999/xlink" x="0px" y="0px"
	 width="512px" height="512px" viewBox="0 0 512 512" enable-background="new 0 0 512 512" xml:space="preserve">
<g>
	<path fill="#684C4B" d="M354.3,207.1c-7.5-5.7-17.3-8.8-28.5-8.8c2-1.2,4-2.4,5.8-3.8c7.4-5.6,12.9-13.2,15.6-21.3
		c1.9-5.8,0.4-9.2-1.2-11.1c-1.6-1.9-3.9-2.8-6.6-2.8c-3.2,0-6.3,1.5-7.9,2.4c-12.9,7.4-22.8,19.9-27,34.2
		c-7.5-9.6-18-17.2-29.7-22.8c4.8-0.1,9-0.4,12.9-1.2c14.8-2.7,26.3-11.1,30.7-22.3c2.6-6.6,2.6-11.8,0.1-15.6
		c-1.6-2.3-4.9-5.1-12-5.1c-4.7,0-10.6,1.2-16.7,3.5c-5.4,2-10.4,4.6-13.4,6.9c-5.4,4.2-10.3,9.1-14.6,13.4
		c-0.6,0.6-1.6,1.7-2.8,3.1c-1.2,1.4-3.6,4.2-5.6,6.2c-3.6-16.7-9-37.6-24.3-50.6c-7.5-6.4-16.6-8.5-23.2-5.2
		c-7,3.5-9.8,11.8-9.4,18.5c0.7,11.2,8.5,22,21.6,29.8c4.4,2.6,9,4.8,13.5,6.9c0.6,0.3,1.2,0.6,1.8,0.9c-2.2-0.1-4.4-0.2-6.5-0.2
		c-19.2,0-36.3,5.4-48,15.1c-18.2,15.1-22.5,39.1-26.7,62.2c-0.6,3.4-1.2,6.9-1.9,10.2c-5.3,26.6-14,47.5-26.7,63.9
		c-11.4,14.6-26.4,25.4-42.4,30.4c-3.7,1.2-6.3,4.4-6.5,8.3c-0.2,3.9,1.9,7.5,5.6,9.1c5.7,2.5,11.5,4.9,17.3,7.2
		c21,8.4,40.9,15.6,60.2,21.7c3.5,15.4,15.9,28.2,31.2,32c1.6,0.4,3.2,0.7,4.8,0.9c1.7,0.2,3.3,0.3,5,0.3c4.8,0,9.5-0.8,14-2.3
		c0,0,0,0,0,0c1.5-0.5,2.9-1.1,4.3-1.7c0.4-0.2,0.7-0.4,1.1-0.6c1-0.5,2.1-1,3.1-1.6c0.5-0.3,1-0.7,1.5-1c0.8-0.5,1.6-1.1,2.4-1.7
		c0.6-0.5,1.2-1,1.8-1.5c0.6-0.5,1.2-1,1.8-1.5c0.7-0.7,1.4-1.5,2.1-2.2c18.7,3.6,37.2,6.3,54.9,7.7c6,0.5,11.5,0.7,18.2,0.7
		c0,0,0,0,0,0c2.9,0,5.9,0,9.2-0.1l2.4,0c1.9,0,4-0.3,6.3-0.5c3.8-0.5,6.9-3.1,7.9-6.8c1-3.7-0.3-7.6-3.4-10
		c-8.8-6.7-15.2-13.6-20.3-21.6c9.2-2.2,18-4.5,26.4-7c5.7,5.1,13.2,7.8,20.7,7.8c3.5,0,7-0.6,10.3-1.8c10.3-3.8,17.9-13.3,19.6-24
		c12-5.1,23.4-10.7,34-16.6c6.7-3.8,11.2-6.9,17.3-11.2c1-0.6,2-1.5,3.1-2.5l0.4-0.4c2.4-2.1,3.3-5.3,2.3-8.3c-1-3-3.7-5.1-6.9-5.2
		c-11.1-0.6-19.5-3.4-28.1-9.1c-2.6-1.8-5.1-3.9-7.3-6.4c-8.9-9.9-13.1-23.8-17.6-38.5C375.1,237.3,369.4,218.7,354.3,207.1z
		 M373,257.6c1.7,5.5,3.4,11,5.3,16.4c-24.5,11.8-50,21.6-76,29.3c0.2-0.7,0.4-1.4,0.6-2c0.5-1.8,1.1-3.6,1.6-5.4
		c0.1-0.2,0.1-0.4,0.2-0.6c0.5-1.5,0.9-3.1,1.4-4.6c7.9-25.7,16.1-52.4,7.5-77.9c-0.2-0.5-0.4-0.9-0.6-1.4c-0.4-1.2-0.9-2.4-1.4-3.6
		c4.7-1.1,9.4-1.6,13.9-1.6c9.5,0,17.7,2.5,23.9,7.2C362.6,223.4,367.7,240,373,257.6z M289.4,323.5c-0.3,1.8-0.6,3.7-0.9,5.5
		c-0.1,0.8-0.2,1.5-0.3,2.2c-0.1,1.2-0.3,2.3-0.4,3.5c0,0.3-0.1,0.6-0.1,0.9c-0.1,0.7-0.1,1.4-0.1,2c0,0.6-0.1,1.1-0.1,1.7
		c0,1.2,0,2.3,0,3.4c0,0.5,0,0.9,0,1.4c0,1.3,0.1,2.6,0.2,3.9c-51-4.2-104.9-17.3-152.8-36.9c4.9-7.4,9.2-15.6,12.8-24.7
		c46,16.3,93.7,28,142,35C289.6,322.2,289.5,322.9,289.4,323.5z M299.9,312.3c27.8-8,55.2-18.4,81.4-30.9c2.2,5,4.8,9.7,7.9,13.9
		c-28.3,15.7-60.9,28.2-93,35.6C296.9,325.3,298.1,319.2,299.9,312.3z M335.4,168.5c1.5-0.8,2.9-1.3,4-1.3c0.2,0,0.5,0,0.7,0.2
		c0.1,0.2,0.4,1.2-0.3,3.4c-2.2,6.6-6.8,12.9-12.9,17.5c-4.1,3.1-8.8,5.6-14.1,7.4C316.8,184.3,324.9,174.4,335.4,168.5z M265,161
		c1-1.2,1.8-2.2,2.3-2.7c4.2-4.2,8.9-8.9,13.9-12.8c2.3-1.8,6.6-4,11.2-5.7c9.2-3.4,17.8-3.8,19.5-1.3c0.9,1.4,0.6,4.4-0.9,8.2
		c-4,10.2-15.4,15.7-24.8,17.4c-4,0.7-8.3,1.1-13.5,1.1c-3.7,0-7.5-0.2-11.2-0.4C262.6,163.7,263.7,162.4,265,161z M222,147.7
		c-5.1-3-17-11.4-17.7-23.5c-0.2-4,1.2-9.1,5-11c1.1-0.5,2.2-0.8,3.5-0.8c3.3,0,7.5,1.9,11.1,5c11.5,9.8,16.7,24.5,20.7,41.6
		c-3.2-1.7-6.5-3.3-9.8-4.8C230.4,152.1,226.1,150.1,222,147.7z M158,251.1c0.7-3.4,1.3-6.9,1.9-10.3c3.9-21.8,8-44.3,24-57.6
		c10.3-8.6,25.5-13.3,42.9-13.3c6.4,0,13.1,0.7,19.8,2c0,0,0.1,0.1,0.1,0.1c-2.6,2.8-6.2,4.8-9.2,6c-2.3,0.9-4.6,1.7-7.1,2.5
		c-3.8,1.2-7.6,2.5-11.3,4.4c-7.9,4.1-13,10.7-13.6,17.7c-0.3,2.8,0.2,5.4,0.6,7.9c0.5,3,0.9,5.6,0,7.6c-1,2.3-3.6,4-6.4,5.8
		l-1.6,1.1l4.4,6.5l1.5-1c3.5-2.3,7.5-4.8,9.4-9.4c1.7-4.1,1-8.2,0.4-11.9c-0.3-2.1-0.7-4.2-0.5-6c0.4-4.3,3.9-8.6,9.4-11.4
		c3.1-1.6,6.6-2.7,10.2-3.9c2.5-0.8,5.1-1.7,7.6-2.7c3.9-1.6,7.2-3.6,9.9-5.9c0.5,2.6,0.4,5.2-0.4,7.6c-0.8,2.3-2.2,4.5-3.7,6.9
		c-2.4,3.8-5.1,8.1-5.4,13.4c-0.2,4.5,1.4,8.5,2.8,12c0.7,1.7,1.4,3.4,1.8,5c1.1,4.1,0.8,8.4-0.8,12.3l7.3,2.9
		c2.2-5.5,2.6-11.6,1.1-17.3c-0.6-2.1-1.3-4-2.1-5.9c-1.2-3.1-2.4-6-2.2-8.7c0.2-3.2,2.1-6.3,4.2-9.6c1.7-2.6,3.4-5.3,4.5-8.4
		c1.7-4.9,1.5-10.3-0.2-15.2c17.9,5.4,34.6,15.5,43.9,30l1,1.8l0,0.2l0.2,0l0,0c0.3,0.5,0.5,0.9,0.8,1.4c0.5,0.9,1,1.8,1.4,2.8
		c0.5,1.1,1,2.3,1.4,3.5c0.1,0.4,0.3,0.7,0.4,1.1c7.7,23.1,0.3,47.4-7.6,73.1c-1.2,3.8-2.3,7.7-3.5,11.6c-0.6,2-1.2,4-1.7,6
		c-0.2,0.7-0.4,1.5-0.6,2.2l-0.1,0.4c-0.1,0.5-0.2,0.9-0.3,1.4c-0.3,1.3-0.7,2.6-1,3.8c-47.9-6.9-95.3-18.6-140.9-34.7
		C153.5,270.5,156,261.2,158,251.1z M207.5,404.2l13.8,3.4c-0.5,0.4-0.9,0.8-1.4,1.1c-0.5,0.3-0.9,0.7-1.4,1
		c-0.8,0.5-1.5,0.9-2.3,1.3c-1.6,0.9-3.3,1.6-5,2.3c-0.1,0-0.2,0.1-0.3,0.1c-1,0.4-2,0.6-3.1,0.9c-0.4,0.1-0.8,0.2-1.2,0.3
		c-1,0.2-1.9,0.4-2.9,0.5c-0.5,0.1-1,0.1-1.6,0.2c-0.9,0.1-1.7,0.1-2.6,0.2c-0.7,0-1.5,0-2.2,0c-0.7,0-1.4,0-2-0.1
		c-1.4-0.2-2.9-0.4-4.3-0.7c-1.4-0.4-2.9-0.8-4.2-1.4c-0.4-0.2-0.9-0.4-1.3-0.6c-0.9-0.4-1.8-0.9-2.7-1.4c-0.5-0.3-1-0.6-1.4-0.9
		c-0.8-0.5-1.6-1.1-2.4-1.7c-0.4-0.3-0.9-0.7-1.3-1c-0.8-0.7-1.6-1.4-2.3-2.1c-0.3-0.3-0.7-0.6-1-1c-1-1.1-2-2.2-2.9-3.4
		c-0.1-0.2-0.2-0.3-0.3-0.5c-0.8-1.1-1.5-2.2-2.1-3.3c-0.2-0.4-0.4-0.9-0.7-1.3c-0.3-0.6-0.5-1.2-0.8-1.8l32,7.9
		C202.1,402.9,204.8,403.6,207.5,404.2z M321.7,406.4c0.7,0.6,0.7,1.3,0.6,1.6c-0.1,0.4-0.4,1-1.3,1.1c-2,0.2-4,0.5-5.5,0.5l-2.4,0
		c-3.3,0-6.2,0.1-9.1,0.1c0,0,0,0,0,0c-6.5,0-11.7-0.2-17.6-0.7c-20.7-1.7-42.4-4.9-64.4-9.6c-4.3-0.9-8.5-1.9-12.8-2.9l-7.7-1.9
		c-31.6-7.9-64.8-18.9-101-33.3c-5.8-2.3-11.5-4.7-17.2-7.2c-0.7-0.3-0.8-1-0.8-1.4c0-0.4,0.2-1.1,1-1.3
		c17.5-5.4,33.9-17.2,46.2-33.1c0.2-0.2,0.3-0.4,0.5-0.6c49.5,20.6,105.6,34.1,158.5,38.3c0.1,0.7,0.3,1.4,0.4,2.1
		c0.1,0.5,0.2,1,0.4,1.6c0.3,1.1,0.5,2.1,0.8,3.1c0.1,0.5,0.3,1,0.4,1.5c0.4,1.3,0.9,2.6,1.4,3.9c0.1,0.2,0.1,0.3,0.2,0.5
		c0.2,0.6,0.5,1.2,0.8,1.7c0.5,1.1,0.9,2.2,1.4,3.2c0.5,1,1,2,1.5,2.9c0.2,0.4,0.4,0.9,0.6,1.3l0.8,1.6c0.1,0.1,0.1,0.2,0.2,0.3
		l0.4,0.8l0.1,0C303.9,390.3,311.3,398.5,321.7,406.4z M360.9,370.2c-6,2.2-13.1,1.5-18.8-1.5c11.2-3.5,21.8-7.2,31.9-11.3
		C371.6,363.2,366.8,368.1,360.9,370.2z M401.1,306.8c9.8,6.6,19.4,9.8,32,10.2l-0.4,0.4c-0.8,0.7-1.6,1.4-2.5,2
		c-6.2,4.3-10.3,7.2-16.7,10.8c-12.4,7-26.1,13.5-40.5,19.3c-21.1,8.5-44.3,15.7-70.6,22c0,0,0,0,0,0c-0.2-0.5-0.5-1-0.7-1.5
		c-0.6-1.2-1.1-2.4-1.6-3.7c-0.1-0.1-0.1-0.3-0.2-0.4c-0.8-2-1.5-4.1-2-6.2c-0.1-0.4-0.2-0.8-0.3-1.2c-0.5-2.2-1-4.3-1.3-6.6
		c-0.6-4-0.7-8.3-0.5-12.8c34.1-7.6,69-20.9,99-37.7C396.6,303.3,398.7,305.2,401.1,306.8z"/>
	<path fill="#684C4B" d="M451.1,298c-4.4-2.3-9.3-3.1-13.6-3.8l-1.2,7.8c3.9,0.6,7.9,1.2,11.2,3c2.4,1.3,5.1,3.7,5.4,6.8
		c0.3,2.4-0.9,5.3-3.7,9c-4,5.4-8.9,10.1-14.4,14l4.5,6.4c6.2-4.4,11.6-9.6,16.2-15.7c2.5-3.4,5.8-8.6,5.2-14.5
		C460.2,305.7,456.6,300.9,451.1,298z"/>
	<path fill="#684C4B" d="M463.5,290.7l0.4,7.9c2.3-0.1,4.8,1.7,5.9,4.3c1.1,2.6,1,6-0.2,9.5c-1.2,3.5-3.4,6.9-5.5,10.2l6.6,4.3
		c2.3-3.5,4.8-7.5,6.4-11.9c1.8-5.4,1.8-10.7,0-15.1C474.7,294.1,469.2,290.3,463.5,290.7z"/>
	<path fill="#684C4B" d="M66,339.8c2.5-2.4,6.3-3.5,9.9-4.7l22.1-6.9l-2.4-7.5l-22.1,6.9c-4.1,1.3-9.1,2.8-12.9,6.4
		c-4.9,4.5-6.4,10.9-6.8,15.4c-1.1,11.7,3.8,23.6,12.8,31.1l5-6c-6.9-5.8-10.9-15.3-10-24.3C62.1,345.8,63.6,342.1,66,339.8z"/>
	<path fill="#684C4B" d="M57.5,321.7c5.7-2.4,12-3.8,18.2-5l-1.6-7.7c-6.5,1.4-13.3,2.8-19.7,5.5c-7.5,3.2-13.3,7.9-16.9,13.6
		c-4.5,7.1-5.3,15.7-2.1,22.5l7.1-3.3c-2-4.4-1.4-10.2,1.6-15C47.6,326.8,53.3,323.5,57.5,321.7z"/>
</g>
</svg>
