<?xml version="1.0" encoding="utf-8"?>
<!-- Generator: Adobe Illustrator 18.0.0, SVG Export Plug-In . SVG Version: 6.00 Build 0)  -->
<!DOCTYPE svg PUBLIC "-//W3C//DTD SVG 1.1//EN" "http://www.w3.org/Graphics/SVG/1.1/DTD/svg11.dtd">
<svg version="1.1" id="Layer_1" xmlns="http://www.w3.org/2000/svg" xmlns:xlink="http://www.w3.org/1999/xlink" x="0px" y="0px"
	 width="512px" height="512px" viewBox="0 0 512 512" enable-background="new 0 0 512 512" xml:space="preserve">
<g>
	<path fill="#684C4B" d="M401,236.1c-0.7-3.5-1.5-6.9-2.3-10.4c-8.1-33.7-20.5-60.3-37.8-81.4c-23.3-28.4-61.9-44.7-106-44.7
		c-17.2,0-35,2.5-51.2,7.4c-20.1,5.9-47.8,18.7-65.6,46c-16.6,25.4-23.9,58.3-26.8,75.6c-4.3,25.7-11.5,77.9-11,139
		c0.1,6.6,5.5,12.1,12.2,12.1c1.1,0,2.3-0.2,3.4-0.5c4.9-1.4,11.3-1.1,17.2,0.8c5.1,1.6,9.8,4,14.9,6.6c4.7,2.4,9.6,4.9,14.8,6.7
		c10.4,3.6,21.8,4.4,32.6,2.1c6.6-1.3,13-3.8,19.1-6.1c10.2-3.9,19.7-7.5,29.5-6.3c7.9,1,15.1,5,22.7,9.3c7.2,4.1,14.7,8.3,23.3,9.9
		c2.7,0.5,5.4,0.8,8.2,0.8c12.9,0,25.3-5.4,37.3-10.7c11.7-5.2,22.8-10,34.1-10c2.3,0,4.6,0.2,6.8,0.6c2.2,0.4,4.4,1.4,6.8,2.4
		c3.7,1.6,7.4,3.2,11.7,3.2c0.5,0,1,0,1.9-0.1c9-1,15.6-9.2,15-18.5c-0.7-11.3-1.2-23.1-1.8-35C408.2,299,406.4,261.9,401,236.1z
		 M395.6,380.6c-3,0.3-6.1-1.1-9.5-2.5c-2.6-1.1-5.4-2.3-8.4-2.9c-2.7-0.5-5.4-0.8-8.3-0.8c-12.9,0-25.3,5.4-37.3,10.7
		c-11.7,5.1-22.8,10-34.1,10c-2.3,0-4.6-0.2-6.7-0.6c-7.3-1.4-13.9-5.1-20.9-9.1c-7.9-4.5-16.1-9.1-25.6-10.3
		c-1.6-0.2-3.2-0.3-4.8-0.3c-10,0-19.4,3.6-28.5,7.1c-5.9,2.2-11.9,4.6-17.9,5.8c-9.4,1.9-19.3,1.3-28.4-1.9
		c-4.7-1.6-9.1-3.9-13.8-6.2c-5.1-2.6-10.4-5.3-16.1-7.1c-7.4-2.4-15.4-2.7-21.8-0.9c-2.7,0.8-5.5-1.3-5.5-4.1
		c-0.5-60.6,6.6-112.3,10.9-137.7c2.8-16.7,9.9-48.4,25.7-72.6c16.5-25.3,42.4-37.2,61.2-42.8c15.6-4.6,32.5-7,49-7
		c41.7,0,78.2,15.2,99.9,41.8c16.5,20.2,28.3,45.8,36.2,78.3c0.8,3.4,1.6,6.7,2.3,10.1c5.2,25.2,7,62,8.7,97.6
		c0.6,11.9,1.1,23.8,1.8,35.1C404.1,375.5,400.5,380,395.6,380.6z"/>
	<path fill="#684C4B" d="M326.1,151.2c-20.5-12.6-46.1-18.7-78.2-18.7c-5.3,0-10.8,0.2-16.5,0.5c-20.3,1.2-36.7,6.2-48.8,15
		c-15,10.9-26.3,27.7-30.9,46.2c-0.7,2.8-1.5,5.7-2.2,8.7c-6.3,24.2-14.1,54.3-3.2,76.2c2.5,5,6.1,10.6,9.9,16.7
		c9.2,14.5,19.7,30.9,19.9,45.2c0,5,4,8.9,9.1,8.9c3.4,0,6.4-1.8,8-4.9c7.3-14.2,11.4-32.5,11.6-49.2c1.6,2.8,3.3,5.5,5.1,8.3
		c9.6,14.6,24.1,22.7,40.9,22.8c0.1,0,0.2,0,0.3,0c18.4,0,36.4-9.7,47.1-25.5c5.7-8.5,9.4-16.5,11.8-24c0.1,3.7,0,7.1-0.4,10.1
		c-1.7,13.7-3.4,31.8-1.8,50.2c1.2,13.4,3,24.9,5.3,34.3c0.9,3.8,4.2,6.4,8.2,6.4c4.3,0,7.8-3.1,8.3-7.3c0.5-4.1,1.5-8.3,3.1-12.4
		c4.6-12.4,10.7-24.7,16.5-36.5c11.6-23.6,23.6-48,25.5-74.8C377.4,209.3,357.9,170.7,326.1,151.2z M306.6,255.4
		c-1.5,12.3-4.3,25.8-14.9,41.5c-9.3,13.7-24.9,22.1-40.8,22c-14-0.1-26.2-6.9-34.3-19.3c-6-9.1-10.8-18.4-14.5-27.9
		c-1-3.7-2.1-7.3-3.1-10.8c-1.6-5.5-3.2-10.9-4.2-15.6c-0.7-4.1-1.2-8.2-1.4-12.2c2-14.8,6.3-28,14.3-42.9
		c7.9,10.9,18.5,21.4,35.2,25.2c6.3,1.5,12,2.5,17.1,3.4c14.8,2.7,24.5,4.5,34.6,13c5.7,4.8,9.8,13.7,12.3,23.5L306.6,255.4z
		 M366.8,246.8c-1.8,25.3-12.9,47.9-24.7,71.9c-5.9,12.1-12,24.5-16.8,37.3c-1.8,4.7-2.9,9.5-3.5,14.2c0,0.2,0,0.4-0.5,0.4
		c-0.4,0-0.5-0.2-0.5-0.4c-2.2-9-4-20.1-5.1-33.1c-1.5-17.7,0.1-35.2,1.7-48.6c2.2-18-2.8-49.8-17.8-62.5
		c-11.7-9.9-23.5-12.1-38.3-14.7c-5-0.9-10.6-1.9-16.7-3.3c-16.6-3.8-26.2-15.3-34-27.2l-3.5-5.3l-3.2,5.5
		c-10.6,18.4-16.1,33.8-18.4,51.6c-0.5,3.9,0.2,8.7,1.5,14.5c1.5,9.1,4,18.2,7.5,27.2c0.1,0.2,0.1,0.4,0.2,0.6
		c5.1,18.6,1.4,47.2-8.5,66.5c-0.2,0.3-0.4,0.6-1,0.6c-0.1,0-1.2,0-1.2-1.1c-0.2-16.6-11.3-34-21.1-49.3c-3.7-5.8-7.2-11.3-9.5-15.9
		c-9.6-19.3-2.2-47.8,3.7-70.7c0.8-3,1.6-6,2.3-8.8c4.1-16.5,14.5-32.1,27.8-41.7c10.9-7.9,25.9-12.4,44.7-13.5
		c5.6-0.3,11-0.5,16.1-0.5c30.5,0,54.8,5.7,74,17.5C351.4,175.9,369.4,211.6,366.8,246.8z"/>
</g>
</svg>
