<?xml version="1.0" encoding="utf-8"?>
<!-- Generator: Adobe Illustrator 18.0.0, SVG Export Plug-In . SVG Version: 6.00 Build 0)  -->
<!DOCTYPE svg PUBLIC "-//W3C//DTD SVG 1.1//EN" "http://www.w3.org/Graphics/SVG/1.1/DTD/svg11.dtd">
<svg version="1.1" id="Layer_1" xmlns="http://www.w3.org/2000/svg" xmlns:xlink="http://www.w3.org/1999/xlink" x="0px" y="0px"
	 width="512px" height="512px" viewBox="0 0 512 512" enable-background="new 0 0 512 512" xml:space="preserve">
<g>
	<path fill="#684C4B" d="M118.9,197.7c-4.7,4.8-6.3,10.5-4.4,15.9c7.4,21,25,42.6,42,63.5c11.9,14.6,24,29.5,32.5,44.1
		c-2.6,1-5.3,2.2-7.6,4.1c-2.9,2.3-5.2,5.9-6,9.8c-2.2,1-4.3,2.6-5.9,4.7c-3,4-4.2,9.4-3.2,14.2c1.6,7.5,7.9,14.3,16.4,17.7
		c5.2,2.1,10.8,2.9,16.1,3.3c-2.5,5-4.5,8.4-6.6,12c-2.7,4.6-5.4,9.4-9.5,17.8c-1.7,3.6-4.6,9.7,0.4,15.8c2.3,2.8,5.8,4.7,9.9,5.3
		c8.4,1.4,14.7-1.8,20.3-4.6c5.5-2.8,9.8-4.9,15.6-3c3.2,1.1,6.1,3.4,9.1,5.9c1,0.8,2,1.6,2.9,2.3c5.1,3.9,9.9,5.8,14.4,5.8
		c1.2,0,2.4-0.1,3.6-0.4c5.2-1.3,8.8-5.2,11.9-8.6c2.6-2.8,5-5.4,7.8-6.2c3.8-1.1,8.2,1.1,11.2,3.2c4.1,2.7,12.5,5.8,18.1,7.8
		l2.5,0.9c4.6,1.6,9.4,0.4,12.8-3.2c3.4-3.7,4.2-9,2.2-13.5l-17.3-37.8c3.7-0.7,7.3-1.5,10.9-2.6c4.8-1.4,10.4-3.3,14.8-7.1
		c5.2-4.4,7.8-10.8,6.9-16.8c-0.9-5.6-5.2-10.2-10.2-11.7c0.6-2.3,0.8-4.7,0.3-7.2c-0.7-3.6-3.1-6.7-6.8-8.7c-1.6-0.9-3.3-1.4-5-1.7
		c12.4-18.5,26.6-35.1,40.4-51.2c12.7-14.8,25.8-30.1,37.1-46.5l1.6-2.3l-1.6-2.2c-9.9-14-21.1-27-36.4-26.3
		c-13.9,0.6-23.9,12.4-32.8,22.8l-1.7,2c-6.4,7.4-18.7,19.1-29.5,14.6c-5.4-2.2-9.3-8-13.4-14c-5.2-7.5-10.5-15.3-19.6-17.4
		c-8.1-1.8-17,1.8-26.3,10.8c-1.2,1.2-2.4,2.4-3.6,3.6c-5,5-9.7,9.7-15.4,11.7c-11.2,3.9-23.5-4-31.8-11.4c-2.2-1.9-4.3-3.9-6.4-5.9
		c-1.1-1-2.2-2.1-3.3-3.1l-0.3-0.6l-0.2,0.1c-6.9-6.4-14.2-12.4-23.1-15.3C143,185,126.9,189.5,118.9,197.7z M318.3,415.6
		c0.9,2,0.2,3.9-0.8,4.9c-0.6,0.6-2.1,1.9-4.4,1.1l-2.3-0.8c-3.6-1.3-9.1-3.3-13-5.1c-2.3-1.4-4-3.5-6.2-6.2
		c-2.9-3.7-5.3-6.8-7.6-10.1c-0.8-1.1-1.5-2.2-2.2-3.3c-1.6-2.5-3.3-5.1-5.4-7.4l-5.8,5.4c1.7,1.8,3.1,4,4.6,6.3
		c0.8,1.2,1.6,2.4,2.4,3.6c1.2,1.7,2.5,3.4,3.8,5.2c-1.6-0.1-3.3,0.1-4.8,0.6c-5,1.4-8.4,5.2-11.5,8.5c-2.6,2.8-5.1,5.5-8,6.2
		c-3.1,0.8-6.9-0.6-11.3-4c-0.9-0.7-1.8-1.5-2.8-2.2c-3.4-2.8-7-5.7-11.6-7.2c-2.4-0.8-4.6-1.1-6.7-1.1l11-18.5l-6.8-4l-14.8,25.1
		c-1.5,0.6-2.9,1.4-4.3,2c-4.9,2.5-9.6,4.8-15.5,3.8c-2.2-0.4-4-1.3-5.1-2.6c-1.6-1.9-1.3-3.5,0.6-7.4c3.9-8.2,6.4-12.6,9.1-17.2
		c2.4-4.1,4.9-8.4,8.3-15.5c15.6,0.8,31.6,1.6,47.4,2c4.3,0.1,8.8,0.2,13.5,0.2c10.3,0,21.1-0.4,32-1.9L318.3,415.6z M326.9,343.7
		L326.9,343.7c2.6-0.4,5.7,2.4,6.1,5.5c0.6,3.9-1.8,7.5-4.2,9.6c-3.3,2.8-7.9,4.4-11.9,5.5c-20.5,5.9-42.8,5.9-62,5.4
		c-16.6-0.4-33.5-1.3-49.8-2.1c-6.6-0.3-13.4-0.7-19.5-3.1c-4.8-1.9-10.4-6.1-11.6-12.1c-0.6-2.6,0.1-5.6,1.8-7.9
		c0.2-0.3,0.5-0.6,0.9-1c3.6,6.4,13.6,10.6,19.9,11.3c19.8,2,37.7,3,54.8,3c17.6,0,34.2-1.1,50.9-3.2c6.1-0.8,13.2-1.9,19.2-5.8
		C323.5,347.5,325.3,345.8,326.9,343.7z M220.5,231.8c7.4-2.6,13-8.2,18.4-13.6c1.2-1.2,2.3-2.3,3.5-3.4c7.3-7,13.8-10,19.2-8.8
		c6.1,1.3,10.3,7.5,14.8,14.1c4.6,6.7,9.4,13.7,16.9,16.8c7.7,3.2,16.4,1.6,25.3-4.5c-12.3,21.5-25.8,42.4-40.4,62.2l6.3,4.7
		c20-27.2,38.1-56.3,53.6-86.4c6.9-7.7,14.1-14.4,22.6-14.8c10.8-0.4,19.8,9.4,28,20.7c-10.7,15.2-22.5,29-35.1,43.6
		c-18.5,21.5-37.6,43.7-52.5,70.6l6.9,3.8c2-3.6,4-7,6.1-10.4c2-0.4,4.3-0.1,6.2,0.9c0.9,0.5,2.5,1.6,2.8,3.3
		c0.9,4.6-2.5,9.2-6,11.5c-4.6,3-10.6,3.9-15.9,4.6c-32.1,4.1-64.2,4.2-103.9,0.2c-4.9-0.5-12.5-4.2-14.1-7.6c-1.2-2.6,0.6-6.1,3-8
		c1.8-1.5,4.1-2.4,6.5-3.2c1.7,3.4,3.2,6.8,4.4,10.1l7.4-2.6c-7.4-21-25-42.6-42-63.5c-16.6-20.4-33.7-41.5-40.7-61.2
		c-0.9-2.5,0-5.1,2.6-7.8c6-6.1,18.8-9.9,25.8-7.6c7.2,2.4,13.4,7.4,19.6,13.1l33.3,70.6l7.1-3.4L185,222.3
		C197.7,232.2,209.9,235.5,220.5,231.8z"/>
	<path fill="#684C4B" d="M165.2,163.4c-0.3,0.3-0.7,0.8-1.3,1.4c-1.6,1.7-3.9,4.4-5.5,6.4l-2.9,3.6l4,2.3c4,2.2,8.1,4,12.4,5.3
		c8.9,6.2,23,11.3,37.6,11.3c5,0,10.1-0.6,15.1-2c12.5-3.5,21.8-11.7,25.5-22.6l0.9-2.7l-2.2-1.7c-11.5-8.8-22.1-16.3-35.2-18.8
		C195.9,142.7,177.4,149.4,165.2,163.4z M169.8,170.2c0.6-0.7,1.1-1.2,1.4-1.6c10.4-11.9,26-17.6,40.9-14.8
		c10.5,2,19.7,8.1,29.5,15.5c-3.4,7.1-10.2,12.5-19.1,15c-7.9,2.2-16.4,2.1-24.4,0.5c10.5-1.2,20.8-4.9,29.9-11l4.8-3.3l-4.8-3.3
		c-13.8-9.4-32.1-9.7-46.7-0.9l4.1,6.7c10-6.1,22.2-6.9,32.5-2.4c-15.8,8.2-34.5,9-50.2,1.9C168.4,171.6,169.2,170.8,169.8,170.2z"
		/>
	<path fill="#684C4B" d="M256.1,167.9l3.3,2.1c6.3,12.6,17.5,21.4,31.7,25.1c4.5,1.2,9.2,1.7,13.8,1.7c11.1,0,22-3.3,30.8-9.7
		c1.2-0.8,2.2-1.6,3.2-2.3c5.6-3.9,9.3-6.5,16.2-17.3l2-3.2l-3-2.2c-33.6-24-68-23.2-94.3,2.2L256.1,167.9z M346.3,166.5
		c-4.7,6.8-7.3,8.7-12,11.9c-1,0.7-2.1,1.5-3.3,2.3c-10.3,7.5-24.9,10-38,6.7c-6.7-1.7-12.6-4.8-17.5-9.1c16.9,6.2,34,4.3,55.7-5.4
		l6.3-2.8l-5.6-4c-17.6-12.5-30.9-10.3-49.3-1.9l3.3,7.2c14-6.4,23.6-8.6,35.2-2.7c-20.2,7.8-35.6,7.2-52-2
		C291.1,148,318.3,147.9,346.3,166.5z"/>
	<path fill="#684C4B" d="M205.6,120.9l3.5,2c3.1,4.2,19.1,23.2,52.9,23.2c3.2,0,6.5-0.2,10-0.5l-0.8-7.8c-15,1.6-26.6-0.8-35.3-4.5
		c6.5,1.4,13.2,2.2,19.9,2.2c11.3,0,22.6-2,33.1-6.2l7.3-2.9l-6.6-4.1c-11.9-7.4-35.4-18.4-58.6-7.8l3.2,7.2
		c15.8-7.2,32.2-2.5,43.5,3.1c-19.5,5.3-41.2,3.2-59.4-5.7c11.1-10.1,25.6-15.7,40.6-15.5c17.3,0.3,33.3,8.1,45.1,21.8l6-5.1
		c-13.3-15.5-31.4-24.2-50.9-24.6c-18.8-0.4-37.2,7.5-50.1,21.6L205.6,120.9z"/>
</g>
</svg>
