<?xml version="1.0" encoding="utf-8"?>
<!-- Generator: Adobe Illustrator 18.0.0, SVG Export Plug-In . SVG Version: 6.00 Build 0)  -->
<!DOCTYPE svg PUBLIC "-//W3C//DTD SVG 1.1//EN" "http://www.w3.org/Graphics/SVG/1.1/DTD/svg11.dtd">
<svg version="1.1" id="Layer_1" xmlns="http://www.w3.org/2000/svg" xmlns:xlink="http://www.w3.org/1999/xlink" x="0px" y="0px"
	 width="512px" height="512px" viewBox="0 0 512 512" enable-background="new 0 0 512 512" xml:space="preserve">
<g>
	<path fill="#684C4B" d="M436.2,417.9c-0.2-20.9,1.1-43.9,4-72c0.5-4.4,1-8.8,1.6-13.3c2.6-20.6,5.3-42-1.1-62.2
		c-1.9-6.2-4.6-11.6-8-16.3l0-0.6c-0.4-7-0.8-14.6-1.2-22.3c-1.2-24.7-2.4-50.2-5.8-66.7c-6.8-33-19.6-56.8-37.8-70.5
		c-14.9-11.3-34.5-17.2-56.8-17.2c-3.5,0-7.2,0.2-10.8,0.5c-24.4,2-44.6,11.6-57,26.8c-2.5,3-4.7,6.3-6.8,9.8
		c-5.3-8-11.4-14.7-18.3-19.9c-14.9-11.3-34.5-17.2-56.8-17.2c-3.5,0-7.2,0.2-10.8,0.5c-24.3,2-44.6,11.6-57,26.8
		c-11.5,14.2-19.3,33-23.1,55.8c-3.6,21.5-7.1,60.7-7,94.7c-4,4.7-7.1,10.4-9.6,17.1c-7.4,20.5-4.6,42.4-2,63.6c0.5,4,1,8,1.4,11.8
		c3,28.2,4.3,50.2,4.3,70.7H46.3v7.9h419.4v-7.9H436.2z M261.1,121.6c2.8-4.3,5.3-8.7,8.3-12.5c11.1-13.6,29.4-22.1,51.6-24
		c3.4-0.3,6.8-0.4,10.1-0.4c14.4,0,35,2.7,52,15.6c16.7,12.6,28.4,34.7,34.8,65.9c3.3,15.9,4.6,42.2,5.7,65.4
		c0.2,4.6,0.4,9,0.7,13.4c-7.5-6.2-16.9-10.1-28.1-11.5c-1.1-0.7-2.3-1.2-3.6-1.5c-0.9-0.2-1.8-0.3-2.6-0.4c-1-0.2-1.9-0.1-2.8-0.1
		c1.8-3.9,3.7-7.9,5.6-11.7c7.4-15,15-30.5,16.2-47.7c1.8-24.5-10.8-49.4-31.3-61.9c-15.3-9.4-34.8-13.2-60.5-11.7
		c-13.1,0.7-23.7,4.1-31.5,9.7c-6.8,4.9-12.3,11.6-16.1,19.3c-1.3,4.1-3.9,12.1-8,27.4c-0.2,0.9-0.5,1.8-0.7,2.8c0,0,0,0,0,0
		c-0.6,2.8-1.1,5.5-1.4,8.3c0,0-0.7,10.2-0.7,10.6c0.1,2.9,0.4,5.6,0.9,8.3c0.1,0.6,0.2,1.1,0.4,1.6c0.4,1.3,0.7,2.5,1.2,3.7
		c0.1,0.3,0.2,0.6,0.4,0.9c0.2,0.6,0.5,1.1,0.7,1.6c1.6,3.2,3.9,6.8,6.3,10.6c0.9,1.4,1.8,2.9,2.8,4.4c0,0,0,0,0,0.1
		c11.1,15,11.4,28,11.4,28l-8.7,0.8c-0.5,0.1-1.1,0.2-1.6,0.4c-1.3,0.1-2.6,0.2-3.8,0.4c-14.4,2.6-25.8,8.9-27.4,9.8
		c-0.1,0.1-0.2,0.1-0.2,0.1c-0.4-15.5,2.2-46.3,2.2-46.3c0.1-1.2,0.2-2.4,0.3-3.5c0,0,0-0.1,0-0.1c0.1-1.1,0.2-2.1,0.3-3.1
		c0.6-6,1.2-11.7,1.8-16.9c0.1-0.9,0.2-1.7,0.3-2.6c0-0.2,0-0.4,0.1-0.7c0.6-4.8,1.3-9.1,1.9-12.9c0.5-3,1.1-5.9,1.8-8.8
		C249.8,152.4,254.8,131.3,261.1,121.6z M392.2,276.1v2.2l-2.8,1.4c-2,0.5-3.8,1.1-5.4,1.8l0.5-23.2l0.2-7.9l0.2-7.5
		c0-0.7,0-1.7,0.2-2.3c0-0.2,0.1-0.4,0.2-0.5c0-0.1,0.2-0.2,0.3-0.2c0,0,0.1-0.1,0.2-0.2l0.1-0.1c0.7-0.3,1.9-0.5,3.3-0.3
		c0.7,0.1,1.4,0.2,2.1,0.4c0.6,0.1,1.1,0.4,1.5,0.8c0.2,0.2,0.4,0.4,0.5,0.7c0.1,0.1,0.2,0.3,0.2,0.4c0.1,0.4,0.2,0.7,0.2,1.1v0.2
		c-0.2,2-0.3,4-0.5,6.1c0,0.4,0,0.8-0.1,1.3l-0.4,7.9c0,0.9-0.1,1.9-0.1,2.8c-0.1,1.8-0.1,3.7-0.2,5.5c0,1.1,0,2.3-0.1,3.4
		C392.1,272,392.1,274.1,392.2,276.1z M290,242.4c13.9-4.8,15.6-16.9,16.5-29.1c6.1,6.6,14.1,10.2,23.1,10.2h0.2
		c9.1,0,17.9-3.6,24.8-9.7c1.9,7.6,4.7,14.2,9.9,19c0.7,6.8,1.7,12.8,2.9,17.8c1.6,6.3,5.8,7.6,8,7.8h1.3
		c-0.2,9.4-0.4,18.7-0.6,28.2c-1.4,1-2.8,2.1-4.1,3.2l0,0c-0.2,0.2-0.5,0.4-0.7,0.6c-0.1,0.1-0.2,0.2-0.4,0.3
		c-1.3,1.1-2.6,2.3-3.9,3.4c-0.2,0.2-0.4,0.3-0.5,0.5c-2.6,2.2-5,4.4-7.5,6.4c-2.5,2-5,3.7-7.6,4.9c-1.1,0.5-2.2,1-3.5,1.4
		c-0.2,0.1-0.5,0.1-0.7,0.2c-1.1,0.3-2.2,0.6-3.3,0.9c-0.2,0-0.5,0.1-0.8,0.2c-1.2,0.2-2.4,0.4-3.7,0.6c-0.2,0-0.4,0.1-0.6,0.1
		c-1.5,0.2-2.9,0.2-4.3,0.2c-0.8,0-1.7,0-2.4-0.1c-0.4,0-0.7,0-1,0c-0.7-0.1-1.3-0.2-2-0.2c-0.5-0.1-1-0.2-1.5-0.3
		c-0.5-0.1-1-0.2-1.5-0.4c-1-0.2-1.9-0.6-2.8-0.9c-0.4-0.2-0.7-0.4-1.1-0.6c-0.4-0.2-0.8-0.4-1.1-0.6c-0.3-0.2-0.6-0.5-0.9-0.7
		c-0.4-0.3-0.7-0.5-1.1-0.8c-1.3-1.1-2.6-2.4-3.9-3.7c-0.9-0.9-1.9-1.9-2.9-2.8c-1-0.9-2-1.8-3.2-2.7c-0.2-0.2-0.5-0.3-0.7-0.5
		c-0.6-0.4-1.1-0.7-1.8-1.1c-0.3-0.2-0.6-0.3-0.8-0.4c0,0-0.1-0.1-0.2-0.1c-0.2-0.1-0.4-0.3-0.6-0.4c-0.5-0.2-1-0.5-1.5-0.7
		c-0.2-0.1-0.4-0.2-0.6-0.3c-0.6-0.3-1.3-0.6-1.9-0.8c-0.2-0.1-0.5-0.2-0.7-0.3c-0.2-0.1-0.3-0.1-0.4-0.2c0,0,0,0-0.1,0
		c-1.3-0.5-2.7-0.9-4.1-1.3c0,0,0,0-0.1,0c-0.3-0.1-0.6-0.2-0.9-0.2l-5.6-2l1.1-35.5v-6.7C290.1,244.3,290.1,243.4,290,242.4z
		 M363.3,176.9c-0.6,5.4-1.7,11.2-4.6,17.6c-2,4-6,9.9-6,9.9c-5.6,7-14.2,11.3-23,11.3c-8.3,0-15.6-4.1-20.5-11.5
		c-0.6-0.9-1.1-1.9-1.7-2.8c0,0,0-0.1,0-0.2l-4.5-8c-1-2.1-1.9-4.2-2.8-6.3c-0.6-2.3-1.3-4.6-1.9-6.7c-1-3.4-2-6.8-2.6-9.6
		c-0.4-2.5-0.7-5-0.8-7.4c1.1-8.4,3.5-16,7.8-24.4c5,6.4,11.7,12.3,21.6,14.6c4,0.9,7.6,1.6,10.8,2.2c9.1,1.7,15.1,2.8,21.2,7.9
		c3.3,2.8,5.7,7.9,7.2,13.5H363.3z M365,199.6c-0.6,5.1-1.1,11-1.2,17.3c-1.1-3-1.9-6.5-2.7-10.5C362.6,204,363.9,201.8,365,199.6z
		 M375.6,238.9c-0.1,0.4-0.3,0.7-0.4,1.1c-0.5,1.3-0.9,2.5-1.2,3.8c-0.4-1.8-0.6-3.7-0.9-5.7l-1.1-9.3v-0.3c-1-11,0.1-22,1.1-30.3
		c1.5-11.7-1.8-32.3-11.7-40.7c-7.7-6.5-15.3-7.9-24.8-9.6c-3.2-0.6-6.7-1.2-10.5-2.1c-10-2.3-15.7-9.3-20.5-16.5l-3.5-5.3l-3.2,5.5
		c-6.7,11.8-10.3,21.6-11.8,33.1c-0.4,2.6,0.1,5.8,1,9.6c0.9,5.8,2.6,11.6,4.8,17.3c0,0.2,0.1,0.2,0.1,0.4
		c2.9,10.7,1.1,26.6-4.1,38.4c-0.8-7-4.2-14-8.1-20.7c0-0.2,0-0.5,0-0.7c-2.5-4.1-8.6-13.8-8.6-13.8s-0.2-0.6-0.4-1.6
		c0,0.6,0.1,1.2,0.2,1.8c-0.8-1.4-1.6-2.8-2.2-4c-3.5-6.9-3.2-16-1.7-25.2c0,0.2,0.1,0.4,0.2,0.6c0-0.3,0-0.6,0.1-0.9
		c1.1-7,3.1-14.4,3.6-16.3c0-0.1,0-0.2-0.1-0.3c0.1-0.5,0.2-1,0.4-1.5c0.5-1.9,1-3.8,1.5-5.6c2.5-10.1,8.9-19.6,17-25.5
		c6.6-4.8,15.9-7.6,27.4-8.2c24.1-1.4,42,2,56,10.5c18,11.1,29.1,33,27.6,54.7c-1.1,15.6-8.1,29.8-15.4,44.8
		c-2.4,5-4.9,10.1-7.2,15.2L375.6,238.9z M283.9,242.4l-1.8,44.5c-2.6-0.1-5.2,0.2-7.5,0.5c0.2-5.8,0.3-11.1,0.4-16.3
		c0-3.9,0.1-7.6,0.2-11.5l0.9-16.2L283.9,242.4z M140.3,251.5l0-6.7c0-0.3,0-0.7,0-1.1c0,0,0,0,0-0.1c0-0.4,0-0.8-0.1-1.3
		c13.9-4.8,15.6-16.9,16.5-29.1c6.1,6.6,14.1,10.2,23.1,10.2h0.2c9.1,0,17.9-3.6,24.8-9.7c1.9,7.6,4.7,14.2,9.9,19
		c0.7,6.8,1.7,12.8,3,17.8c1.3,5.6,4,7.4,6.2,7.8l3,0c0,2.1-0.1,4.2-0.1,6.3c-1.1,2.2-2.1,4.6-3,7c-2.4,6.7-3.7,13.5-4.3,20.4
		c-0.7,0.6-1.5,1.3-2.2,1.9c-0.2,0.2-0.4,0.3-0.6,0.5c-1.3,1.1-2.5,2.2-3.8,3.3c-1.8,1.6-3.7,3.1-5.6,4.4c-1.9,1.4-3.8,2.6-5.8,3.5
		c-1.1,0.5-2.2,1-3.5,1.4c-0.2,0.1-0.5,0.1-0.7,0.2c-1.1,0.3-2.2,0.6-3.3,0.9c-0.3,0-0.6,0.1-0.8,0.2c-1.2,0.2-2.4,0.4-3.7,0.6
		c-0.2,0-0.4,0.1-0.6,0.1c-1.5,0.2-2.9,0.2-4.3,0.2c-0.9,0-1.7,0-2.5-0.1c-0.3,0-0.6,0-0.9,0c-0.7-0.1-1.3-0.2-2-0.2
		c-0.5-0.1-1-0.2-1.5-0.3c-0.5-0.1-1-0.2-1.5-0.4c-0.9-0.2-1.9-0.6-2.8-0.9c-0.3-0.2-0.6-0.4-1-0.6c-0.4-0.2-0.8-0.4-1.2-0.6
		c-0.5-0.4-1-0.7-1.5-1.1c-0.2-0.2-0.4-0.3-0.6-0.4c-1.3-1.1-2.6-2.4-3.9-3.7c-0.9-0.9-1.9-1.9-2.9-2.8c-1-0.9-2-1.8-3.2-2.7
		c-0.3-0.2-0.6-0.4-0.9-0.6c-0.5-0.4-1.1-0.7-1.6-1c-0.3-0.2-0.6-0.4-0.9-0.5c0,0,0,0-0.1,0c-0.2-0.1-0.4-0.3-0.7-0.4
		c-0.5-0.2-1-0.5-1.5-0.7c-0.2-0.1-0.4-0.2-0.6-0.3c-0.6-0.3-1.2-0.6-1.9-0.8c-0.3-0.1-0.6-0.2-0.8-0.3c-0.1,0-0.2-0.1-0.4-0.1
		c0,0-0.1,0-0.1,0c-1.3-0.5-2.7-0.9-4.1-1.3c0,0,0,0-0.1,0c-1.6-0.4-3.2-0.8-4.9-1.1c-0.2,0-0.4-0.1-0.5-0.1v-28.7h0.1L140.3,251.5z
		 M213.6,176.9c-0.6,5.4-1.7,11.2-4.6,17.6c-1.5,3.6-6,9.9-6,9.9c-5.6,6.9-14.3,11.3-22.9,11.3h-0.2c-8.3,0-15.6-4.1-20.4-11.5
		c-0.6-0.9-1.2-1.9-1.7-2.8l-4.5-8.1c-1-2-1.9-4.1-2.7-6.3c-0.6-2.3-1.3-4.6-1.9-6.7c-1-3.4-1.9-6.8-2.6-9.6
		c-0.4-2.5-0.7-4.9-0.8-7.4c1.1-8.4,3.5-16,7.8-24.4c5,6.4,11.6,12.3,21.6,14.6c4,0.9,7.6,1.6,10.8,2.2c9.1,1.7,15.1,2.8,21.2,7.9
		c3.3,2.8,5.7,7.9,7.2,13.5H213.6z M215.2,199.6c-0.6,5.1-1.1,11-1.2,17.3c-1.1-3.1-1.9-6.6-2.7-10.5
		C212.8,204,214.1,201.8,215.2,199.6z M225.9,238.9c-0.1,0.4-0.3,0.7-0.4,1c-0.5,1.3-0.9,2.6-1.2,3.9c-0.4-1.8-0.7-3.7-0.9-5.7
		l-1.1-9.3c0-0.1,0-0.2,0-0.3c-1-11,0.1-22,1.1-30.3c1.4-11.7-1.9-32.3-11.7-40.7c-7.7-6.5-15.2-7.9-24.8-9.6
		c-3.1-0.6-6.6-1.2-10.5-2.1c-10-2.3-15.8-9.3-20.5-16.5l-3.5-5.3l-3.1,5.5c-6.8,11.7-10.3,21.6-11.8,33.1c-0.4,2.6,0.1,5.8,0.9,9.6
		c0.9,5.8,2.6,11.6,4.8,17.4c0,0.1,0,0.2,0.1,0.3c2.9,10.7,1.1,26.6-4.1,38.4c-1.1-10-7.6-20-13.3-29.1c-2.3-3.6-4.5-7.1-5.9-9.9
		c-5.8-11.7-1.2-29.3,2.5-43.5c0.5-1.9,1-3.8,1.4-5.6c2.5-10.1,8.9-19.6,17-25.5c6.6-4.8,15.8-7.6,27.4-8.2c24.1-1.4,42,2,55.9,10.5
		c8.9,5.5,16.1,13.6,21,23c-2,6.3-3.6,13-4.8,20c-2.4,14.4-4.8,36.9-6.1,60.4c-1.8,3.7-3.5,7.4-5.2,11.2L225.9,238.9z M98.3,161.2
		c3.6-21.5,10.8-39,21.5-52.1c11.1-13.6,29.4-22.1,51.6-24c3.4-0.3,6.8-0.4,10.2-0.4c14.3,0,35,2.7,52,15.6
		c7.1,5.4,13.3,12.6,18.7,21.4c-1.4,2.7-2.6,5.6-3.8,8.5c-5.2-8.1-12.1-15.1-20.2-20c-15.4-9.4-34.8-13.2-60.5-11.7
		c-13.1,0.7-23.7,4.1-31.6,9.7c-9.7,7-17,17.9-20,29.9c-0.4,1.8-0.9,3.6-1.4,5.5c-4,15.5-9,34.8-1.9,49c1.6,3.2,3.9,6.8,6.3,10.6
		c5.5,8.5,12.2,19.1,12.3,27.7c0,1.9,0.7,3.5,1.9,4.8c-1.5-0.1-2.8,0.2-3.9,0.4c-0.6,0.1-1.2,0.3-1.8,0.3h-0.9c-1,0-2.4,0-3.9,0.5
		c-13,1-23.3,4.4-31.5,10.3C91.8,215.6,95,180.9,98.3,161.2z M132.5,243.9v43c-2.7-0.1-5.3,0.2-7.5,0.5c0.2-5.8,0.3-11.1,0.4-16.3
		c0-3.9,0.1-7.6,0.2-11.5l0.3-7.9c0.1-1.7,0.2-3.5,0.4-5.4l0.1-1.7c0-0.1,0-0.1,0-0.2h0.2c0.5,0,1,0,1.5,0c1,0,2-0.2,3-0.4
		c0.4-0.1,1-0.2,1.4-0.3C132.4,243.7,132.5,243.8,132.5,243.9z M116.6,417.8l-30.9,0.1c0-20.8-1.4-43.1-4.4-71.6
		c-0.4-3.9-0.9-7.9-1.4-12c-2.5-20.3-5.1-41.2,1.6-59.9c2-5.7,4.7-10.4,8-14.4c0,0,5.2-6.2,10.4-8.7c0.1,0,0.1,0,0.2-0.1
		c5.1-2.9,11.1-4.8,18.3-5.9v0.3l-0.1,1.5c-0.1,1.6-0.2,3.1-0.3,4.6l-0.6,7.9c-0.7,10.2-1.3,20.4-1.9,30.2c-0.1,0-0.2,0.1-0.3,0.2
		c-0.3,0.1-0.6,0.2-0.8,0.4c-0.4,0.2-0.7,0.4-1.1,0.6c-0.4,0.2-0.8,0.4-1.2,0.6c-0.4,0.2-0.7,0.5-1.1,0.7c-0.4,0.2-0.7,0.5-1,0.7
		c-0.2,0.2-0.4,0.3-0.7,0.5c-0.5,0.4-0.9,0.9-1.4,1.3c-0.2,0.2-0.5,0.5-0.7,0.7c-0.1,0.1-0.2,0.2-0.3,0.3c-0.7,0.8-1.4,1.7-2,2.6
		c-1.6,2.6-2.3,5.6-2.3,8.9c0,7,2.9,15.3,5.5,22.9c1.2,3.5,2.3,6.7,2.8,9.1c0.1,0.3,0.1,0.6,0.2,0.9c1.4,6.3,2.7,12.7,3.9,19.1
		C116.7,377.6,117.2,396.8,116.6,417.8z M124.4,417.9c0.1-3.5,0.2-6.9,0.2-10.4c0.9,3.5,1.8,6.9,2.8,10.4H124.4z M135.5,417.6
		c-4.8-16-7.9-32.9-10.9-49.2c-0.6-3.4-1.3-6.8-2-10.3v-0.3c-1.4-7.5-2.7-13.6-3.9-19.1c-0.1-0.4-0.2-0.7-0.2-1.1
		c-0.6-2.8-1.8-6.2-3-9.8c-2.7-7.9-6.7-19.6-4.2-24.6c0.1-0.2,0.1-0.4,0.2-0.5c0.1-0.2,0.3-0.4,0.4-0.6c0.4-0.6,0.8-1.1,1.3-1.6
		c0.3-0.3,0.7-0.6,1-0.9c0.4-0.3,0.7-0.6,1.1-0.9c0.5-0.3,1-0.6,1.5-0.9c0.3-0.2,0.6-0.4,0.9-0.5c0.8-0.4,1.7-0.7,2.7-1
		c0.2-0.1,0.3-0.1,0.4-0.2c0.1,0,0.2,0,0.2,0c0.6-0.2,1.1-0.3,1.7-0.4c0.2,0,0.3-0.1,0.5-0.1c2.6-0.5,5.1-0.6,7-0.6c2,0,4,0.2,6,0.4
		c0.4,0.1,0.8,0.1,1.2,0.2c0.7,0.1,1.5,0.3,2.2,0.4c0.3,0.1,0.6,0.1,1,0.2c0.9,0.2,1.9,0.4,2.8,0.7c0.6,0.1,1.1,0.3,1.6,0.5
		c0.4,0.1,0.8,0.2,1.2,0.4c0.6,0.2,1.1,0.4,1.6,0.6c0.4,0.1,0.7,0.3,1.1,0.4c0.5,0.2,1,0.4,1.5,0.6c0.4,0.2,0.7,0.4,1.1,0.6
		c0.4,0.2,0.8,0.4,1.2,0.6c0.4,0.2,0.7,0.5,1.1,0.7c0.3,0.2,0.6,0.4,0.8,0.6c0.9,0.6,1.8,1.4,2.6,2.2c0.9,0.8,1.7,1.6,2.5,2.5
		c1.5,1.5,3.1,3.1,4.8,4.5c0.1,0.1,0.2,0.1,0.3,0.2c0.7,0.6,1.6,1.2,2.4,1.8c0.5,0.3,1,0.6,1.5,0.8c0.5,0.3,1,0.6,1.6,0.8
		c0,0,0.1,0,0.1,0c1,0.4,2,0.8,3.1,1.1c0.2,0,0.5,0.1,0.7,0.2c3.1,0.8,6.6,1.3,10.3,1.3c7.2,0,14.7-1.6,20.3-4.2
		c2.6-1.3,5-2.9,7.4-4.6c2.3-1.7,4.5-3.5,6.6-5.3c0.1,10.7,1.4,21.6,2.8,32.2c0.5,4,1,8,1.4,11.8c3,27.9,4.3,49.8,4.3,70
		L135.5,417.6z M266.3,417.1l-15.1,0.4l-7.9,0.4l-6,0h-1.8c0,0-0.5-14.7-0.7-25.5c0-0.4,0-0.7,0-1.1c-0.7-13.5-1.9-28.1-3.7-45
		c-0.4-3.9-0.9-7.9-1.4-11.9c-1.4-11.1-2.8-22.4-2.6-33.4c-0.1-0.1-0.1-0.3-0.1-0.4c0-3.5-0.1-10.2,0.2-13.6c0,0,3.4-26.6,24.8-36.8
		c0,0,0.3-0.2,0.9-0.4c0.2-0.1,0.6-0.2,0.9-0.4c1.1-0.6,2.3-1,3.5-1.4c0.3-0.1,0.6-0.2,0.9-0.3c3.1-1.2,7.1-2.6,10.8-3.5l-3.5,43.7
		l-0.1,1.9c-2.1,0.9-5.2,2.9-6,3.5c-0.1,0.1-0.2,0.2-0.2,0.2c-0.5,0.4-1,0.9-1.5,1.4c-0.2,0.2-0.5,0.4-0.7,0.7l0,0
		c-0.1,0.1-0.2,0.2-0.2,0.2c-0.7,0.8-1.4,1.7-2,2.7c-0.1,0.2-0.2,0.4-0.3,0.6c-3.4,6-1.9,14.5,0.7,23l3.9,11.8
		c0.7,2.1,1.3,4.1,1.7,5.6c0,0.3,0.1,0.6,0.2,0.9c1.4,6.3,2.7,12.7,3.9,19.1C266.4,377.4,266.9,396.4,266.3,417.1z M274.1,416.9
		c0.1-3.1,0.2-6.3,0.2-9.4c0.7,3.1,1.6,6.2,2.5,9.3L274.1,416.9z M387,417.9c1.8-8,3.5-16,5.1-23.9c0.2,8.2,0.6,16.2,0.9,23.9H387z
		 M399,336.4c-1.3,3.1-2.4,5.9-3.4,8.4c0,0.1-0.1,0.2-0.1,0.3c-0.4,1.2-0.8,2.3-1.2,3.4c-0.1,0.2-0.2,0.4-0.2,0.6
		c-0.2,0.5-0.4,1.1-0.5,1.5l-0.1,0.5c-0.1,0.4-0.2,0.7-0.3,1.1c-3,12.2-5.6,24.8-8.1,36.9c-1.9,9.3-3.8,18.8-6,28.1l-92.6,0.4
		c0,0-5.7-14.6-7.4-24.6c-1.7-8.2-3.3-16.5-4.8-24.6c-0.6-3.4-1.3-6.8-1.9-10.3c0-0.1,0-0.2,0-0.2c-1.4-7.4-2.6-13.6-3.9-19.2
		c-0.1-0.3-0.1-0.7-0.2-1c-0.6-2.8-1.8-6.2-3.1-9.8c0,0,0-0.2-0.2-0.5c-0.6-1.6-1.1-3.3-1.7-5.2c0-0.1,0.1-0.2,0.1-0.4
		c-0.7-2.6-1.7-6.3-3-11.2c-3.3-12.8,7.5-13.4,7.5-13.4c0.7-0.3,1.4-0.6,2.2-0.8c0.2-0.1,0.3-0.1,0.5-0.2c0,0,0.1,0,0.2,0
		c0.6-0.2,1.1-0.3,1.7-0.4c0.2,0,0.3-0.1,0.5-0.1c2.6-0.5,5.1-0.6,7-0.6c2,0,4,0.2,6.1,0.4c0.3,0.1,0.7,0.1,1,0.2l7.9,1.8
		c0.4,0.1,0.7,0.2,1.1,0.4c0.6,0.2,1.1,0.4,1.7,0.6c0.4,0.2,0.7,0.3,1,0.4c0.5,0.2,1,0.4,1.5,0.6c0.4,0.2,0.7,0.4,1,0.6
		c0.4,0.2,0.8,0.4,1.2,0.6c0.4,0.3,0.8,0.6,1.3,0.8c0.2,0.2,0.5,0.3,0.7,0.5c0.9,0.6,1.7,1.4,2.6,2.2c0.9,0.8,1.7,1.6,2.6,2.5
		c1.5,1.5,3.1,3.1,4.8,4.5c0.5,0.4,1,0.7,1.5,1.1c0.4,0.3,0.8,0.6,1.2,0.9c0.6,0.4,1.2,0.6,1.8,0.9c0.4,0.2,0.9,0.5,1.3,0.7
		c0,0,0.1,0,0.2,0c0.9,0.4,2,0.8,3.1,1.1c0.2,0,0.5,0.1,0.7,0.2c3.1,0.8,6.6,1.3,10.3,1.3c7.2,0,14.8-1.6,20.3-4.2
		c2.4-1.1,4.7-2.7,6.9-4.3c3.5-2.5,6.8-5.4,10-8.3c0.2-0.2,0.4-0.3,0.6-0.5c1.2-1.1,2.4-2.1,3.6-3.1c0.5-0.4,1-0.8,1.5-1.2
		c1.4-1.2,2.9-2.3,4.4-3.4c3.8-2.7,7.8-4.7,12-5.2c0.2,0,0.4-0.1,0.6-0.1c1.1-0.1,2.3-0.2,3.5,0c5.2,0.4,8.6,2,10.4,5
		c5.5,9-2.8,29.3-8.9,44.1C399.1,336.1,399.1,336.2,399,336.4z M432.4,345.1c-2.9,27.9-4.3,50.8-4.1,71.7l-27.4,0.7
		c-1-20.2-1.8-42.7,0.4-64.8c0.1-0.4,0.2-0.9,0.4-1.3c0-0.1,0.1-0.2,0.1-0.2c0-0.2,0.1-0.3,0.2-0.5c0.3-0.9,0.6-1.8,1-2.8
		c0.1-0.3,0.2-0.5,0.3-0.8c0.4-1.1,0.9-2.2,1.3-3.3c0.1-0.2,0.1-0.4,0.2-0.6c0.5-1.2,1-2.4,1.5-3.7c0.1-0.2,0.1-0.3,0.2-0.5
		c7.1-17.3,16-38.9,8.4-51.3c-0.7-1.1-1.5-2.1-2.4-3c-0.1-0.1-0.2-0.2-0.2-0.3c-0.9-0.9-1.9-1.6-3-2.2c-0.2-0.1-0.3-0.2-0.5-0.3
		c-1.1-0.6-2.2-1.1-3.5-1.5c-0.2-0.1-0.5-0.2-0.7-0.2c-1.3-0.4-2.7-0.7-4.2-0.9c-0.1,0-0.2-0.1-0.3-0.1c0-1.6,0-3.1,0-4.7
		c0-1.2,0-2.5,0-3.7c0-1.7,0.1-3.5,0.1-5.2c0-1.3,0-2.6,0.1-4c0-1.2,0.1-2.3,0.2-3.5l0.5-7.9c0.2-2.2,0.3-4.4,0.5-6.6
		c0-0.4,0-0.9,0-1.3c6.4,1.5,11.9,4.1,16.6,7.7c0,0,5.7,4.3,7.7,7.8c3.2,4.3,5.7,9.3,7.6,15c5.8,18.6,3.3,39,0.7,58.8
		C433.5,336.2,432.9,340.7,432.4,345.1z"/>
	<path fill="#684C4B" d="M245.9,177.1c-0.6,5.3-1.2,10.9-1.8,16.9C244.7,188,245.3,182.3,245.9,177.1z"/>
	<path fill="#684C4B" d="M283.2,235.6"/>
	<path fill="#684C4B" d="M275.5,259.3"/>
</g>
</svg>
