<?xml version="1.0" encoding="utf-8"?>
<!-- Generator: Adobe Illustrator 18.0.0, SVG Export Plug-In . SVG Version: 6.00 Build 0)  -->
<!DOCTYPE svg PUBLIC "-//W3C//DTD SVG 1.1//EN" "http://www.w3.org/Graphics/SVG/1.1/DTD/svg11.dtd">
<svg version="1.1" id="Layer_1" xmlns="http://www.w3.org/2000/svg" xmlns:xlink="http://www.w3.org/1999/xlink" x="0px" y="0px"
	 width="512px" height="512px" viewBox="0 0 512 512" enable-background="new 0 0 512 512" xml:space="preserve">
<g>
	<path fill="#684C4B" d="M93,390.3c3.2,3.3,7.5,5.1,12.1,5.2c11.9,0.1,24.2,0.2,36.8,0.2c37,0,77.1-0.4,115.9-0.8
		c38.2-0.4,77.7-0.8,113.7-0.8c11.8,0,23.3,0,34.6,0.1c4.6,0,8.9-1.8,12.1-5.1c3.2-3.3,5-7.7,4.9-12.3c-0.5-28.2-0.1-57.8,0.3-86.3
		c0.4-29.3,0.9-59.5,0.3-88.4c-0.2-9.2-7.5-16.6-16.8-16.7c-5.1-0.1-10.3-0.1-15.6-0.2l0.8-13.1l-3.8-0.4
		c-14.7-1.4-29.6-2.1-44.3-2.1H341l-0.9,2.6c-1.5,4.1-2.3,8.5-2.3,12.9c-7.1,0-14.4,0.1-21.9,0.1l-2.5-27.8l-17.9-19.1
		c-3.3-3.5-7.9-5.5-12.7-5.5h-27.2l-21.9-0.4c-4.6,0-8.8,1.7-12,4.8c-8.9,8.6-23.2,25.8-23.8,26.5l-0.8,0.9l-2.5,21.3
		c-1.9,0-3.8,0-5.7,0c0-1.6-0.1-3-0.1-4.3c-0.1-2.4-0.1-4.7,0-8.6l0.1-4.2l-73.8,2.2l-0.3,3.5c-0.3,3.6-0.3,5.5-0.4,7.5
		c0,1.1-0.1,2.3-0.2,3.7c-1.9,0-3.7,0-5.4-0.1c-4.7,0-9.3,2-12.5,5.4c-3.2,3.5-4.8,8-4.5,12.7c0.1,1.3,0.1,2.7,0.1,4.4l-3.8,169.8
		C88.1,382.7,89.8,387,93,390.3z M405.9,386.4L405.9,386.4c-11.1-0.1-22.6-0.1-34.5-0.1c-36,0-75.5,0.4-113.7,0.8
		c-38.8,0.4-78.9,0.8-115.8,0.8c-12.6,0-24.8,0-36.7-0.2c-2.5,0-4.8-1-6.5-2.8c-1.7-1.8-2.6-4.1-2.6-6.6l0-2.2l319,1
		c0,2.5-0.9,4.8-2.6,6.6C410.7,385.4,408.4,386.4,405.9,386.4z M203.8,175.1c2.3-0.2,4.8-0.4,7.4-0.6c3.7-0.3,7.5-0.6,10.3-0.7
		l85.3-1.7l1.2,13.2h0l3.5,39.1c0,0,0,0-0.1,0c-1.5-1.2-3-2.3-4.6-3.4c-0.1-0.1-0.2-0.2-0.4-0.3c-5.2-3.5-10.9-6.3-17-8.5
		c-2.2-0.8-4.5-1.4-6.8-2c-0.5-0.1-1.1-0.3-1.6-0.4c-2.1-0.5-4.2-0.9-6.4-1.3c-0.3-0.1-0.6-0.1-0.9-0.2c-2.4-0.4-4.8-0.6-7.2-0.8
		c-0.7-0.1-1.5-0.1-2.3-0.2c-1.9-0.1-3.9-0.2-5.9-0.2c-0.5,0-0.9-0.1-1.4-0.1c-0.2,0-0.5,0-0.7,0c-1.5,0-2.9,0.1-4.4,0.1
		c-0.7,0-1.3,0-2,0.1c-2.3,0.1-4.6,0.3-6.9,0.5c-1.4,0.1-3,0.3-4.6,0.6c-0.3,0-0.7,0.1-1,0.1c-1.2,0.2-2.4,0.4-3.7,0.6
		c-0.5,0.1-1,0.2-1.5,0.3c-1.4,0.3-2.9,0.6-4.4,0.9c-0.9,0.2-1.7,0.4-2.6,0.7c-0.8,0.2-1.6,0.4-2.4,0.6c-0.9,0.3-1.8,0.5-2.7,0.8
		c-1,0.3-2,0.7-3.1,1c-0.8,0.3-1.7,0.6-2.5,0.9c-1.5,0.6-3.1,1.2-4.6,1.9c-0.4,0.2-0.8,0.4-1.2,0.6c-1.6,0.7-3.1,1.5-4.7,2.4
		c-0.1,0.1-0.3,0.2-0.4,0.2c-1.8,1-3.6,2.1-5.4,3.3l4.3-36.9h0L203.8,175.1z M273.7,343.9c-0.1,0-0.3,0-0.4,0
		c-6.2,0.8-12.8,1.2-19.6,1.2c-6.7,0-13.5-0.4-19.9-1.2c-6.4-0.8-12.6-1.9-18.2-3.4c-11.6-3.1-21.6-13.2-27.9-28.5
		c-4.6-11-6.9-23.5-7-35.3c-0.1-11.9,2.1-22.9,6.6-30.8c1.1-1.9,2.4-3.8,3.7-5.5c0.1-0.2,0.3-0.4,0.4-0.6c1.4-1.7,2.9-3.4,4.5-4.9
		l0.1-0.1c5.1-4.9,10.9-8.5,17-11.3c0.3-0.1,0.6-0.3,0.9-0.4c1.7-0.8,3.5-1.5,5.3-2.1c0.6-0.2,1.2-0.4,1.9-0.6
		c1.3-0.4,2.6-0.8,3.9-1.2c0.8-0.2,1.5-0.4,2.2-0.6c1.4-0.4,2.8-0.7,4.2-1c0.6-0.1,1.2-0.3,1.8-0.4c1.7-0.3,3.3-0.6,4.9-0.9
		c0.2,0,0.5-0.1,0.7-0.1c1.7-0.3,3.5-0.5,5.1-0.6c1-0.1,2-0.2,3-0.2c1.1-0.1,2.2-0.2,3.2-0.2c1.2-0.1,2.3-0.1,3.5-0.1
		c0.8,0,1.7-0.1,2.5-0.1c0.9,0,1.8,0,2.6,0c1.6,0,3.2,0.1,4.7,0.2c0.8,0,1.7,0.1,2.5,0.2c2.2,0.2,4.3,0.4,6.3,0.7
		c0.6,0.1,1.1,0.2,1.6,0.3c1.7,0.3,3.3,0.6,4.9,1c0.7,0.2,1.4,0.3,2.1,0.5c1.8,0.5,3.6,1,5.4,1.6c0.2,0.1,0.4,0.1,0.6,0.2
		c2.4,0.8,4.6,1.8,6.9,2.9c0.5,0.2,1,0.5,1.6,0.8c2,1,3.9,2.1,5.8,3.3c0.2,0.1,0.4,0.2,0.5,0.3c2,1.3,3.9,2.8,5.7,4.3
		c0.4,0.3,0.8,0.7,1.2,1c1.5,1.3,3,2.7,4.3,4.2c0.3,0.3,0.6,0.6,0.9,0.9c0.9,1,1.7,2,2.5,3c0.3,0.4,0.7,0.8,1,1.2
		c1.1,1.5,2,3,2.9,4.5c10.2,17.7,11.6,42.1,3.6,62.3c-6.3,16.1-17.9,27.4-32.5,31.8c-5.2,1.6-10.9,2.8-17.1,3.6
		C274,343.9,273.8,343.9,273.7,343.9z M172.9,281.5c0.6,11.3,3.1,23,7.5,33.6c7.3,17.6,19.1,29.4,33.2,33.1c2.9,0.8,6,1.5,9.3,2.1
		c9.6,1.8,20.3,2.8,30.9,2.8c0,0,0,0,0,0c6.7,0,13.1-0.4,19.2-1.1c7.4-0.9,14.4-2.3,20.5-4.1c17-5.2,30.3-18.2,37.6-36.5
		c6.4-16.3,7.3-35.1,2.9-51.7l81.9-1.5c-0.1,10.8-0.2,21.6-0.4,32.3c-0.4,26-0.7,52.9-0.4,78.8l-318.7-1l2.5-112.9
		c12.1,1.2,25.1,1.9,38.2,1.9c13,0,26.1-0.7,38.3-1.9C173.2,263.3,172.4,272.3,172.9,281.5z M346.7,177.6
		c12.3,0.1,24.7,0.7,36.9,1.7l-0.3,5.9c-8,0-16.2-0.1-24.8-0.1c-4.2,0-8.5,0-12.8,0C345.7,182.6,346,180,346.7,177.6z M358.4,193
		c17.4,0,33.2,0.1,48.2,0.3c4.9,0.1,8.9,4.1,9,8.9c0.3,15.7,0.3,31.9,0.2,48l-84.5,1.5c-1.3-3.3-2.8-6.6-4.5-9.6
		c-1-1.7-2-3.3-3.2-4.9c-0.4-0.6-0.9-1.2-1.4-1.8c-0.7-0.9-1.4-1.9-2.2-2.8l-3.6-39.6C331.3,193,345.1,193,358.4,193z M227.1,143
		c1.7-1.7,4.1-2.6,6.7-2.6h0l21.7,0.4l27.2,0c2.6,0,5.2,1.1,7,3l16.1,17.2l0.3,3.3l-84.8,1.7c-3,0.1-6.9,0.4-10.7,0.7
		c-1.7,0.1-3.5,0.3-5.1,0.4C209.4,162.4,220.2,149.7,227.1,143z M181,182c0,1.3,0.1,2.6,0.1,4.1c-6,0-11.9,0-17.9,0
		c-2.9,0-5.6,0-8.4,0c0-2.1-0.1-3.8-0.2-5.4c-0.1-0.9-0.1-1.8-0.1-2.8l26.5-0.8C180.9,179,180.9,180.5,181,182z M122.3,182.5
		c0-1.1,0.1-2.2,0.2-3.7l24.1-0.7c0,1.1,0.1,2.1,0.2,3c0.1,1.5,0.2,3.1,0.2,4.9c-8.9,0-17.1-0.1-24.7-0.1
		C122.2,184.6,122.3,183.5,122.3,182.5z M102.1,196.6c1.8-1.9,4.1-2.9,6.8-2.9h0c14.8,0.2,33.1,0.3,54.2,0.3c10.2,0,20.5,0,30.5-0.1
		l-4.2,36.3c-1.6,1.6-3.2,3.4-4.6,5.3c-0.2,0.2-0.4,0.5-0.5,0.7c-1.4,1.9-2.7,3.8-3.9,5.9c-0.9,1.6-1.7,3.3-2.4,5.1
		c-25,2.8-54,2.9-79,0.3l0.9-38.9c0-1.9,0-3.6-0.1-5.1C99.5,200.9,100.4,198.4,102.1,196.6z"/>
	<path fill="#684C4B" d="M312.4,302.2c4.3-10.2,6.1-20.2,5.4-29.7c-0.8-10.9-5-20.8-11.9-27.9c-10.1-10.3-24.9-13.8-36.6-15.8
		c-8.3-1.3-15.2-2-21.7-2c-4.1,0-8.2,0.3-11.9,0.8c-11.7,1.6-17.1,5.5-26.1,13.5c-14,12.8-19.5,26.9-17.2,44.5
		c2.4,18.2,14.2,34.2,30.7,41.9c8.2,3.8,17.5,5.7,28.3,5.7h0c7.8,0,16.4-1,26.2-3c5.9-1.2,12.7-2.8,18.6-6.7
		C302.8,319.2,308.3,312.1,312.4,302.2z M291.8,317c-4.8,3.1-10.7,4.5-15.9,5.6c-9.3,1.9-17.4,2.8-24.7,2.8h0
		c-9.7,0-17.9-1.6-25-4.9c-13.9-6.4-24.1-20.5-26.2-35.7c-2-15,2.5-26.6,14.6-37.6c8.1-7.2,12.3-10.2,21.9-11.6
		c3.4-0.5,7.1-0.7,10.8-0.7c6.1,0,12.6,0.6,20.4,1.9c10.6,1.7,23.8,4.8,32.3,13.5c5.6,5.7,9,13.9,9.7,22.9
		c0.6,8.1-1.1,17.2-4.8,26.1C301.6,307.5,297.2,313.5,291.8,317z"/>
	<path fill="#684C4B" d="M267.8,250.1c-5.1-0.2-10.3,1.8-13.5,5.2c-0.1,0.1-0.2,0.3-0.4,0.4c-2.9-2.8-6.5-4.2-8-4.8
		c-5.6-2-11.2-0.5-15.2,4.2c-5,5.9-6.3,15-2.9,21.2c2.2,4.1,5.7,7.8,9.1,11.4c1.6,1.7,3.2,3.4,4.5,5c1.6,2,6,7.4,6.6,10.4
		c0.5,2.3,2.3,4,4.6,4.3c0.2,0,0.5,0,0.7,0c2,0,3.8-1.1,4.8-3c2.3-4.6,6.1-8.8,9.8-12.9c1.1-1.3,2.3-2.5,3.4-3.8l0.9-1.1
		c3.5-4,8.3-9.5,10.3-14.2c2.6-6.1-1-14-3.9-17.5C276.1,252.1,272.2,250.3,267.8,250.1z M275.2,269.6c-1.5,3.6-6,8.8-9,12.2
		l-0.9,1.1c-1,1.2-2.1,2.4-3.2,3.6c-2.9,3.2-5.9,6.5-8.4,10.2c-1.6-2.9-3.9-5.8-6.2-8.7c-1.4-1.8-3.1-3.6-4.8-5.4
		c-3-3.2-6.2-6.6-7.9-9.8c-1.8-3.3-0.9-9,2-12.4c1.3-1.5,2.8-2.3,4.5-2.3c0.7,0,1.4,0.1,2.1,0.4c2.8,1,6.1,3,6.7,5.4
		c-0.2,1-0.2,2.1-0.1,3.1c0.4,5,4.2,9.3,9,10.1c3.8,0.6,7.8-1.2,9.9-4.6c2.2-3.5,1.9-7.9-0.8-11.8l-6.4,4.6c0.9,1.2,1.1,2.3,0.6,3
		c-0.5,0.7-1.4,1.1-1.9,1c-1.2-0.2-2.3-1.6-2.4-3c-0.1-1.7,0.7-3.7,2.3-5.4c1.6-1.8,4.7-2.8,7.5-2.8c1.3,0,3.6,0.4,5,2.1
		C274.5,262.7,276.2,267.3,275.2,269.6z"/>
	<path fill="#684C4B" d="M353.3,239.6l27.7,1.1c0.4,0,0.8,0,1.2,0c2.2,0,5.3-0.3,7.5-2.8c2.1-2.4,2.2-5.4,2.2-7.2l0.3-17.2
		c0.1-2.9-1-5.6-3-7.7c-2-2.1-4.7-3.3-7.6-3.3l-27.8-0.4l-0.6,0c-1.3,0-4.5,0-6.9,2.1c-2.8,2.5-2.9,6.2-3,8.2l-0.4,16
		C342.8,234.3,347.4,239.3,353.3,239.6z M351.2,212.7c0-1.8,0.2-2.3,0.3-2.5c0.1,0,0.4-0.2,1.8-0.2l28.3,0.4c0.8,0,1.5,0.3,2.1,0.9
		c0.5,0.6,0.8,1.3,0.8,2.1l-0.3,17.2c0,0.4,0,1.8-0.1,2c0,0-0.4,0.2-1.7,0.2l-28.6-1.1c-1.6-0.1-2.9-1.4-2.8-3.4L351.2,212.7z"/>
</g>
</svg>
