<?xml version="1.0" encoding="utf-8"?>
<!-- Generator: Adobe Illustrator 18.0.0, SVG Export Plug-In . SVG Version: 6.00 Build 0)  -->
<!DOCTYPE svg PUBLIC "-//W3C//DTD SVG 1.1//EN" "http://www.w3.org/Graphics/SVG/1.1/DTD/svg11.dtd">
<svg version="1.1" id="Layer_1" xmlns="http://www.w3.org/2000/svg" xmlns:xlink="http://www.w3.org/1999/xlink" x="0px" y="0px"
	 width="512px" height="512px" viewBox="0 0 512 512" enable-background="new 0 0 512 512" xml:space="preserve">
<g>
	<path fill="#684C4B" d="M106.5,431.9c14.1,0.3,25.4,0.3,36.5,0.3c13.1,0,26.6,0,45.1,0.5l4.1,0.1l0,0c7.5,0.2,15.3,0.2,23.8,0.2
		c17.6,0,35.4-0.4,52.6-0.7c17.7-0.4,35.9-0.7,54.3-0.7h1l0,1.1c18.5-0.5,32-0.5,45.1-0.5c11.8,0,24,0,39.5-0.4
		c7.7-0.2,14-6.6,14-14.3L422,287.6l-19.5-18.8l-1-0.9c-8.3-6.7-14.8-8.7-22.4-11.1l-2.4-0.8c-3.7-1.2-7.5-1.3-10.8-1.4
		c-9.9-0.3-14.9-0.6-19.8-0.8c-4.4-0.2-9-0.5-17.2-0.7c-0.2-28.2-0.9-44.2-2-48.8c-8.7-36-39.1-81.2-63.1-112.8l-2.9-3.9l-3.2,3.7
		c-20.5,23.6-39.8,48.7-57.4,74.6c-6.2,9.1-12,18-15.3,28.4c-3.1,9.8-3.8,38.2-3.7,58.9c-6.9,0.2-11.2,0.5-15.3,0.7
		c-4.9,0.3-10,0.5-19.8,0.8c-3.3,0.1-7.1,0.2-10.8,1.4c-8.9,2.8-13.1,5-24.3,11.5l-21,20l-0.5,126.9
		C89.5,423.9,97.1,431.7,106.5,431.9z M408.3,424c-15.4,0.4-27.5,0.4-39.3,0.4c-12.4,0-25.2,0-42.2,0.5c-0.1-29.4,0.5-53.6,1.1-76.9
		c0.5-18.8,0.9-38.2,1.1-60.5l23,1.5c0,0,0.1,0.1,0.1,0.1l0.1-0.1l46.1,3c3.8,0.2,7.8,0.5,11.8,0.5c1.4,0,2.7-0.1,4.1-0.2l0.5,125.3
		C414.6,421,411.8,423.9,408.3,424z M329,267.8l0-2c0-1.6,0-3.1,0-4.7c5.5,7.4,10.6,13.5,15.6,19.4l-15.6-1
		C329,275.7,329,271.8,329,267.8z M376.8,264.4c7.4,2.3,12.7,4,19.6,9.5l11.1,10.6c-2.9-0.1-5.7-0.3-8.6-0.4l-10.2-0.7
		c-7.7-6.5-15.1-13.4-22-20.8c2.7,0.1,5.3,0.2,7.7,1L376.8,264.4z M355.5,262.3l4.8,5.1c4.9,5.3,10.1,10.3,15.4,15.2l-20.1-1.3
		c-6.5-7.3-11.6-13.3-16.7-19.9c2.4,0.1,4.5,0.2,6.6,0.3C348.5,261.9,351.5,262.1,355.5,262.3z M106.7,424.1
		c-5.1-0.1-9.3-4.4-9.3-9.5l0.4-119.3l84.1-5.7c0.6,20.7,0.7,41.8,0.9,62.3c0.2,24,0.4,48.7,1.2,72.9c-16.5-0.4-29-0.4-41.1-0.4
		C132,424.4,120.7,424.4,106.7,424.1z M181.5,275.1c0.1,2.2,0.1,4.4,0.2,6.7l-16.7,1.1c5.3-6.1,10.5-12.3,16.2-19.8
		C181.3,268.7,181.4,273,181.5,275.1z M246.7,388.1c-0.2-3.3-0.3-6.8,1.3-8.2c0.6-0.5,1.6-0.8,2.6-1.1c3.5-1.1,7.1-1.6,10.8-1.7
		c2.6-0.1,3.6,0.4,4,0.8c0.7,0.7,0.8,2.8,0.8,3.9l0.2,5.7c0.5,11.8,0.9,21.4,0.1,37.1c-6.7,0.1-13.5,0.3-20.3,0.4
		C247.4,412.8,247.5,400.4,246.7,388.1z M192.4,196.8c3-9.4,8.5-17.8,14.3-26.4c16.5-24.3,34.6-47.9,53.7-70.2
		c23,30.7,50.8,72.8,58.8,106c0.8,3.1,1.7,16,1.8,59.6l0,2c0.2,30.8-0.5,55.7-1.1,79.9c-0.6,23.1-1.2,47-1.1,76.1
		c-15.1,0-30,0.3-44.6,0.6c0.8-15.9,0.4-25.9-0.1-37.3l-0.2-5.7c-0.1-2.1-0.2-6.1-2.9-9c-2.9-3.1-7-3.4-9.9-3.3
		c-4.4,0.1-8.7,0.8-12.9,2c-1.7,0.5-3.7,1.2-5.3,2.6c-4.9,4.1-4.4,11.1-4.1,14.8c0.9,12.1,0.7,24.3-0.5,36.4
		c-7.5,0.1-14.9,0.2-22.3,0.2c-8.5,0-16.3-0.1-23.9-0.2L190,253l-0.9,0C189,231.8,189.8,205,192.4,196.8z M166.4,261.8
		c2-0.1,3.9-0.2,6.2-0.3c-5.6,7.2-11.1,13.8-18.7,22.2l-19.3,1.3c4.7-4.6,9.4-9.6,13.7-14.2l7.9-8.5
		C160.3,262.1,163.4,261.9,166.4,261.8z M115.3,274.2c10.4-6.1,14.2-8,22.3-10.6c2.2-0.7,4.8-0.9,7.4-1l-2.6,2.7
		c-5.6,6-11.9,12.7-17.9,18.2l-0.1-0.1c-0.6,0.4-1.2,1-2.2,2c-0.1,0.1-0.2,0.2-0.3,0.3l-20.1,1.4L115.3,274.2z"/>
	<path fill="#684C4B" d="M252.3,185.4c0.3,16.3,0.3,33.4-0.1,48.1l7.9,0.2c0.4-14.8,0.4-32,0.1-48.5c6.7-0.2,13.1-0.5,18.6-0.9
		l-0.5-7.9c-5.4,0.4-11.6,0.7-18.2,0.9c-0.2-7.8-0.5-15.4-0.8-22.3l-7.9,0.4c0.3,6.8,0.6,14.4,0.8,22.1c-6.2,0.1-12.4,0.2-18.2,0.1
		l-0.1,7.9c1.6,0,3.1,0,4.7,0C243,185.5,247.7,185.5,252.3,185.4z"/>
	<path fill="#684C4B" d="M263,289.3c-1.6-0.7-3.6-1.6-5.7-2c-3.9-0.8-8-0.3-11.4,1.5c-4.7,2.5-8.1,7.6-8.9,13.2
		c-0.6,4.9,0.7,10.2,3.6,14.8c1.2,1.9,2.6,3.4,4,4.4c3.4,2.5,7.6,2.9,11.5,3l1.1,0c3,0,6.7-0.3,9.9-2.6c4-3,5.2-8,5.7-11.4
		c1.2-7.8-0.3-13.6-4.3-17.4C266.9,291.1,264.8,290.1,263,289.3z M265.1,309c-0.5,3.3-1.3,5.3-2.6,6.3c-1.3,1-3.5,1.1-5.2,1.1
		l-0.9,0c-2.7-0.1-5.3-0.3-7-1.5c-0.7-0.5-1.4-1.3-2.1-2.4c-1.9-3-2.8-6.5-2.4-9.5c0.4-3.1,2.3-6,4.7-7.3c1.2-0.6,2.6-1,4-1
		c0.7,0,1.4,0.1,2,0.2c1.4,0.3,2.8,0.9,4.1,1.5c1.2,0.5,2.6,1.2,3.5,2C265.7,300.9,265.6,305.5,265.1,309z"/>
	<path fill="#684C4B" d="M295.9,359.6c0.4,0,0.8,0,1.2,0c0.9,0,1.6-0.1,2.4-0.3c1.5-0.4,3-1.3,4.3-2.6c2.6-2.7,4.1-6.4,4-10.1
		c-0.1-3.7-1.7-7.3-4.3-9.9c-1-0.9-2-1.7-3.1-2.2c-3.5-1.7-8-1.1-11.3,1.3c-2.6,1.9-4.5,5-5.4,8.6c-1,4.2-0.3,8.2,2,10.9
		C288.5,358.8,292.9,359.4,295.9,359.6z M291.3,346.4c0.4-1.8,1.3-3.3,2.5-4.2c0.6-0.5,1.4-0.7,2.2-0.7c0.4,0,0.7,0.1,1,0.2
		c0.3,0.1,0.6,0.4,1,0.7c1.2,1.2,1.9,2.8,2,4.5c0,1.6-0.6,3.3-1.7,4.4c-0.4,0.4-0.7,0.5-0.7,0.5c0,0-0.5,0-1,0
		c-2.5-0.2-4.1-0.6-4.8-1.4C291,349.6,290.9,348,291.3,346.4z"/>
	<path fill="#684C4B" d="M215.4,359.6c0.4,0,0.8,0,1.2,0c0.9,0,1.6-0.1,2.4-0.3c1.5-0.4,3-1.3,4.3-2.6c2.6-2.7,4.1-6.4,4-10.1
		c-0.1-3.7-1.7-7.3-4.3-9.9c-1-0.9-2-1.7-3.1-2.2c-3.5-1.7-8-1.1-11.3,1.3c-2.6,1.9-4.5,5-5.4,8.6c-1,4.2-0.3,8.2,2,10.9
		C208,358.8,212.4,359.4,215.4,359.6z M210.8,346.4c0.4-1.8,1.3-3.3,2.5-4.2c0.6-0.5,1.4-0.7,2.2-0.7c0.4,0,0.7,0.1,1,0.2
		c0.3,0.1,0.6,0.4,1,0.7c1.2,1.2,1.9,2.8,2,4.5c0,1.6-0.6,3.3-1.7,4.4c-0.4,0.4-0.7,0.5-0.7,0.5c0,0-0.5,0-1,0
		c-2.5-0.2-4.1-0.6-4.8-1.4C210.5,349.6,210.4,348,210.8,346.4z"/>
	<path fill="#684C4B" d="M159.8,331l-37,1.1l-0.4,3.4c-1.2,10.6-1,21.4,0.5,32l0.4,2.6l2.5,0.7c3.1,0.8,6.4,1.2,9.6,1.2
		c2.3,0,4.6-0.2,6.9-0.6c1-0.2,2-0.4,3-0.6c3.1-0.7,6-1.3,8.1-0.6l4.5,1.4l0.5-4.7c1.2-10.5,1.7-21.3,1.4-31.9L159.8,331z
		 M151.1,361.9c-2.6,0-5.1,0.6-7.6,1.1c-0.9,0.2-1.8,0.4-2.7,0.6c-3.4,0.6-7,0.7-10.5,0.1c-0.9-8-1.1-16-0.4-24l22.2-0.7
		C152.2,346.7,151.8,354.3,151.1,361.9z"/>
	<path fill="#684C4B" d="M389.8,334.1l-0.3-3.2l-3.1-0.4c-6.4-0.8-11.4-1.1-16.5-1.1c-4.1,0-8.3,0.2-14.7,0.7l-3.6,0.3v3.6
		c0,10,0.3,20.2,0.8,30.3c0,0.9,0.2,3,1.9,4.5c1.3,1.2,2.9,1.5,3.7,1.6c5.7,0.8,10.2,1.1,14.7,1.1c5.1,0,10-0.4,15.8-1.1l3.6-0.4
		l-0.1-3.6C391.6,355.7,390.9,344.8,389.8,334.1z M360.2,362.8c-0.4-8.3-0.7-16.7-0.8-25.1c4.2-0.3,7.4-0.4,10.5-0.4
		c3.9,0,7.8,0.2,12.4,0.7c0.8,8.3,1.3,16.7,1.6,25C375.8,363.9,369.8,364,360.2,362.8z"/>
</g>
</svg>
