<?xml version="1.0" encoding="utf-8"?>
<!-- Generator: Adobe Illustrator 18.0.0, SVG Export Plug-In . SVG Version: 6.00 Build 0)  -->
<!DOCTYPE svg PUBLIC "-//W3C//DTD SVG 1.1//EN" "http://www.w3.org/Graphics/SVG/1.1/DTD/svg11.dtd">
<svg version="1.1" id="Layer_1" xmlns="http://www.w3.org/2000/svg" xmlns:xlink="http://www.w3.org/1999/xlink" x="0px" y="0px"
	 width="512px" height="512px" viewBox="0 0 512 512" enable-background="new 0 0 512 512" xml:space="preserve">
<g>
	<path fill="#684C4B" d="M382.3,245.3c2.7-0.4,4.7-0.9,6.7-1.3c3.5-0.7,6.8-1.4,13.3-2.1l11.1-1.2l-9.4-6c-3.5-2.3-7.1-4.8-10.5-7.2
		c-6.7-4.7-13.7-9.6-21.3-13.4c-13.8-6.8-27.9-8.3-39.1-3.9c-4.6,1.8-8.6,4.5-12.2,7.6c-0.1-32.7,1.5-62.9,5-96.7
		c0.6-6.1-1.8-11.8-6.6-15.4c-4.5-3.4-10.4-4.2-15.7-2.1c-30.6,12.4-54.2,34.2-66.6,61.5c-9.5,21-12.8,44.2-10.1,70.6
		c-8-4.7-15.3-10.3-21.6-15.4c-22.4-18.2-43-38.9-61.2-61.6c-2.3-2.8-5.6-4.5-9.2-4.5c-4.5,0-8.7,2.6-10.7,6.7
		c-2.1,4.1-2.6,5.3-2.8,6c-3,9.5-3.6,20.2-3.8,30.3c-0.4,20.1,3.4,40.4,10.9,58.6c9.2,22.3,23.9,42,42.6,57c9,7.2,17.9,12,26.9,14.7
		c2,0.6,5.4,1.3,8.8,1.9c2.5,0.4,3.4,2.3,3.6,3.1c0.6,1.7,0.2,3.5-1.1,4.9c-23.2,24.8-39.5,47-59.9,77l-3.8,5.7l6.8,0.5
		c2.7,0.2,5.3,0.4,7.9,0.6c6,0.5,11.7,1,17.5,1c6.1,0,11.6-0.6,16.9-1.7c4.4-1,8.4-1.9,12.2-4.1c3.7-2.1,6.7-5,9.6-8.1
		c3.9-4.1,7.8-8.8,11.9-13.8c7.7-9.3,16.2-19.6,25.4-26.1l3.6,7.7c2.5,5.3,5,10.8,7.8,16.1h0l2.3,4.6c2.6,5.2,5.3,10.6,8.3,16.2
		l6.9-3.8c-1.9-3.4-3.6-6.7-5.2-10l6.9,0c0,0,0,0,0,0c3.8,0,7.3,2.1,9.1,5.4l0.3,0.5c1.1,1.9,2.2,3.9,3.2,6.4l7.3-2.9
		c-1.2-2.9-2.5-5.2-3.6-7.3l-0.3-0.5c-3.2-5.9-9.4-9.5-16-9.5c0,0,0,0-0.1,0l-10.7,0c-3.4-6-6.4-12.4-9.2-18.6l-3.9-8.4
		c0.9-0.4,1.7-0.8,2.6-1.1c8.1-2.9,16.7-3.6,25.9-4.3c0.6-0.1,1.3-0.1,1.9-0.2l4.8,10.3c2.1,4.6,4.3,9.2,6.6,13.8
		c3.2,8.6,7.9,17.7,11.2,23.3l6.8-4c-1.8-3-3.6-6.4-5.3-9.9l7.2,0c0,0,0,0,0,0c4.1,0,7.8,2.4,9.5,6.2c0.8,1.7,1.8,4,2.9,7l7.4-2.7
		c-1.1-3-2.1-5.3-3.1-7.6c-2.9-6.6-9.5-10.9-16.7-10.9c0,0,0,0-0.1,0l-10.1,0c-3.4-6-6.4-12.4-9.2-18.6l-3.6-7.9
		c16.5-1.9,29.4-5.7,40.5-11.8c15.7-8.7,30.1-26.3,37.6-45.7c2.6-6.8,5.3-17.2,3.1-28.5c-0.9-4.9-2.7-9.2-5.3-13
		c-0.4-0.6-0.8-1.1-1.2-1.7c-1.6-2.2-3.2-4.4-3.2-6.3C370.9,247.8,375.3,246.4,382.3,245.3z M244.2,168.3
		c11.5-25.5,33.6-45.9,62.3-57.4c2.7-1.1,5.6-0.7,8,1.1c2.5,1.9,3.9,5,3.5,8.3c-3.9,36.8-5.4,69.4-5,105.6c-2.4,2.8-4.7,5.7-6.9,8.7
		c-4,5.2-8.2,10.6-12.9,14.9c-1.5,1.4-3.2,2.8-4.9,3.1c-1.3,0.2-2.7,0-4.1-0.2c-16.5-2.5-33.6-5.2-48.9-12.2
		C231.9,212.9,234.7,189.4,244.2,168.3z M367.8,261.8c0.4,0.5,0.8,1,1.1,1.5c2,2.9,3.3,6.2,4.1,10c1.4,7.4,0.5,16-2.7,24.2
		c-6.9,17.8-20,33.8-34.1,41.7c-11,6.1-24.2,9.7-41.5,11.3c-2,0.2-4,0.3-6,0.5c-9.2,0.7-18.8,1.5-27.9,4.7
		c-14.9,5.3-27.4,20.3-38.3,33.6c-4,4.9-7.8,9.5-11.6,13.4c-2.5,2.6-5,5.1-7.7,6.7c-2.8,1.6-6.2,2.4-10,3.2c-4.8,1-9.7,1.5-15.3,1.5
		c-5.5,0-11-0.5-16.8-1c-0.4,0-0.8-0.1-1.2-0.1c18.8-27.5,33.8-47.5,55.3-70.5c3.2-3.4,4.3-8.3,2.8-12.7c-1.5-4.5-5.1-7.6-9.8-8.4
		c-3.5-0.6-6.5-1.3-7.9-1.7c-8.1-2.4-16-6.7-24.2-13.3c-17.7-14.1-31.6-32.7-40.2-53.8c-7.1-17.3-10.6-36.5-10.3-55.5
		c0.2-9.5,0.7-19.5,3.4-28c0.1-0.3,0.5-1.2,2.3-4.9c1.3-2.6,4.9-3.1,6.8-0.9c18.6,23.2,39.6,44.3,62.4,62.8
		c8.6,7,19.1,14.9,30.9,20.5c16.6,7.8,34.5,10.6,51.8,13.2c2,0.3,4.4,0.6,6.8,0.2c3.7-0.7,6.5-2.9,8.8-5.1
		c5.1-4.7,9.5-10.4,13.7-15.9c7.1-9.2,13.9-18,23.6-21.8c9.1-3.6,20.9-2.2,32.7,3.6c7.1,3.5,13.5,8,20.3,12.8
		c0.8,0.5,1.5,1.1,2.3,1.6c-1.4,0.3-2.6,0.5-3.8,0.8c-1.9,0.4-3.8,0.8-6.3,1.2c-6.2,1-17.8,3-17.9,13.2
		C362.9,255.2,365.6,258.9,367.8,261.8z"/>
	<path fill="#684C4B" d="M350,221c-2.2,1.1-3,3.2-3.3,3.9c-0.4,1-0.9,2.5-0.6,4.2c0.5,3,3.2,5.2,6.4,5.2h0c1.5,0,3-0.5,4.1-1.4
		c2.9-2.4,3.4-6.9,1.1-9.9C355.9,220.6,352.5,219.7,350,221z M353.5,228c-0.6,0.3-1.4,0.5-2-0.3c-0.2-0.3-0.4-0.6,0.1-1
		c0.3-0.2,0.6-0.3,0.9-0.3c0.5,0,1.1,0.5,1.3,1.4C353.7,227.9,353.6,228,353.5,228z"/>
	<path fill="#684C4B" d="M107.1,254.5c3.8,13.8,9.7,31.5,21.7,45.7l6-5.1c-11-13-16.6-29.6-20.1-42.7L107.1,254.5z"/>
	<path fill="#684C4B" d="M122.7,327.4l5.6-5.5c-10-10.2-17.8-29.2-21.6-38.9l0.1,0l-0.9-2l-7.3,3
		C102.3,293.2,110.9,315.3,122.7,327.4z"/>
	<path fill="#684C4B" d="M218.3,165.5l7.5,2.2c3.9-13.1,10.7-25.4,19.7-35.7l-5.9-5.2C229.9,138,222.5,151.4,218.3,165.5z"/>
	<path fill="#684C4B" d="M219.8,139.3c4.9-10.3,11.9-19.8,20.2-27.6l-5.4-5.8c-9.1,8.4-16.7,18.8-21.9,30L219.8,139.3z"/>
</g>
</svg>
