<?xml version="1.0" encoding="utf-8"?>
<!-- Generator: Adobe Illustrator 18.0.0, SVG Export Plug-In . SVG Version: 6.00 Build 0)  -->
<!DOCTYPE svg PUBLIC "-//W3C//DTD SVG 1.1//EN" "http://www.w3.org/Graphics/SVG/1.1/DTD/svg11.dtd">
<svg version="1.1" id="Layer_1" xmlns="http://www.w3.org/2000/svg" xmlns:xlink="http://www.w3.org/1999/xlink" x="0px" y="0px"
	 width="512px" height="512px" viewBox="0 0 512 512" enable-background="new 0 0 512 512" xml:space="preserve">
<g>
	<path fill="#684C4B" d="M112.3,149.9c-3.4,7.7-4.2,16.6-3.4,25.8l-0.3,0l1,64.2c0.1,16.8,5.6,33,15.9,47l1.1,1.5
		c0.8,1.1,1.6,2.2,2.5,3.3c12.3,16.3,68.9,66.5,84.8,78.8c9.6,7.4,21.4,16.5,35.9,18.7c2.2,0.3,4.4,0.5,6.7,0.5
		c14.1,0,29.3-6.4,42.8-18.2c7.4-6.5,27.4-23.2,43.4-36.6c10.9-9.1,20.2-16.9,23.4-19.7c12.6-10.9,22.3-24.8,29.7-42.8
		c5.3-12.8,7.9-26.8,7.7-41.8l-0.6-52.7c0.5-5.4,0.4-10.8-0.3-16.3c-1.8-13.1-9.5-24.1-21.1-30c-8.4-4.3-19.2-6.5-32-6.5
		c-7.5,0-15.7,0.7-25,2.2c-26.5,4.2-48.5,14.2-68.7,31.5c-24-17.6-53.3-34.9-89.3-34.9c-4.3,0-8.7,0.2-13.1,0.7
		C132.5,127,118.7,135.5,112.3,149.9z M208.8,170.9c0-10.6-0.1-22.2,0-30.4c13.5,5.5,25.9,13.1,37.1,21v30.8
		c-4.7,2.8-8.9,6.5-12.6,10.8c-3.6-0.1-7.3,0.1-10.9,0.5c-0.5,0.1-1,0.2-1.5,0.4c-3.5-4.4-7.6-8.1-12.2-11.1
		C208.8,189,208.8,182.4,208.8,170.9z M281.8,233.5c1.4-10.8,1.4-20,0.1-27.4c37.6-2.7,61.9-3.6,94.9-4.8c4-0.1,8.2-0.3,12.4-0.5
		c-5.2,12.9-13.4,25.3-23.3,37.1c-31.4,3.1-54,4.8-85.4,4.8C281,239.7,281.5,236.6,281.8,233.5z M278.8,250.7
		c29.7,0.1,51.5-1.4,79.4-4.1c-30.4,32.5-72.1,59-96.2,72.9c-2.4,1.4-4.6,2.1-6.8,2.3c-0.2,0-0.5,0-0.7,0l0.7-56.1
		c2.5,0.8,4.9,1.2,7.3,1.2c2.3,0,4.5-0.4,6.5-1.3C273.9,263.5,276.8,257.8,278.8,250.7z M149.5,250.8c15.8,16.1,33.8,30.6,49.2,42.9
		c0.8,0.6,1.6,1.3,2.4,1.9c-0.2,7.8-0.8,37.3-0.3,53.8c-15.9-13.8-36.7-32.7-51-46.8C149.9,295,150.2,269.7,149.5,250.8z M209,275.7
		c-0.1-4.8-0.1-9.8,0-15.3c3-2.1,5.9-4.6,8.2-7.4c0.8-1,1.7-2,2.4-2.5l-0.1-0.1c1.9,0.7,3.9,1.1,6.1,1.1c3,0,5.9-0.6,8.5-1.3
		l-0.2,0.3c0.7,0.5,1.6,1.5,2.6,2.7c3,3.4,6.7,6.6,10.8,9l-0.7,57.4c-2.7-1.5-5.4-3.5-8.1-5.5c-1.4-1-2.7-2.1-4.1-3
		c-9.1-6.4-17.7-13-25.4-19.1C209.2,286.1,209.1,280.8,209,275.7z M231.9,210.9c0.5,0,1,0,1.5,0c0.4,5.1,0.8,10.1,1,15.2
		c0.3,5.5,0.5,10.9-0.6,15.6c0,0.1,0,0.2-0.1,0.3c-4.1,1.1-8.7,2.1-12,0.8c-0.3-0.1-0.5-0.2-0.5-0.3c-0.4-0.8-0.5-3.1-0.5-4
		c-0.1-7-0.1-14.1,0.1-20.9c0.1-4.1,1.9-6.1,2.6-6.2C226.3,211.1,229.1,210.9,231.9,210.9z M274,232.5c-0.7,5.9-3,23.7-8.2,26
		c-6.2,2.7-17.2-3.3-23.5-10.6c-0.5-0.6-1.1-1.2-1.7-1.9c0.4-0.9,0.7-1.7,0.9-2.5c1.3-5.7,1.1-11.7,0.7-17.8
		c-0.3-5.5-0.7-11-1.1-16.5c-0.1-0.8-0.2-1.6-0.5-2.5c4.4-4.8,9.6-8.5,15.3-10.8c8.5-3.4,12.7-2.7,15.4,2.5
		C275,205.6,275.9,217.3,274,232.5z M215.1,209.4c-1.2,2.3-2,5.1-2.1,8.1c-0.1,6.9-0.1,14.1-0.1,21.2c0,2.2,0.2,4.4,0.9,6.4
		c-1,0.9-1.9,1.9-2.9,3c-6.1,7.1-17.1,13-23.3,10.3c-5.3-2.3-7.4-19.5-8.2-26c-1.9-15.1-1-26.9,2.7-33.9c2.7-5.2,6.9-5.9,15.4-2.5
		C204.3,198.7,210.3,203.3,215.1,209.4z M184.6,265.7c2,0.9,4.2,1.3,6.5,1.3c3.2,0,6.6-0.8,10-2.2c0,3.9,0,7.5,0.1,11.1
		c0.1,3.2,0.1,6.5,0.1,9.9c-14.3-11.4-30.5-24.6-44.9-39.2l17.7,1.3C175.9,256.2,179,263.2,184.6,265.7z M171.7,233.5
		c0.3,2.1,0.6,4.2,0.9,6.3l-24.2-1.7c-4.2-4.6-8.1-9.3-11.7-14.2c-4.4-6-9.1-14.1-12.9-23.1c15.7,0.7,23.7,1.3,29.9,1.7
		c6.4,0.5,10.5,0.7,18.5,0.8C170.3,211.3,170.1,221.3,171.7,233.5z M132.9,283.7l-1.1-1.5c-9.3-12.7-14.3-27.3-14.4-42.5l-0.5-34.6
		c3.7,8.5,8.3,16.6,13.3,23.4c3.3,4.5,7,9,10.9,13.3l0,0.2c1,14.5,1,38.9,0.9,52.6c-2.9-3.1-5.2-5.7-6.7-7.7
		C134.5,285.9,133.7,284.8,132.9,283.7z M208.8,356.2c-0.4-6.8-0.1-39.1,0.1-54.4c6.5,5.1,13.6,10.4,21,15.6c1.3,0.9,2.6,1.9,4,2.9
		c4,3,8.1,6.1,12.8,7.8l-0.6,52.1c-10.3-3-19.3-9.9-27.3-16C216.1,362.3,212.7,359.5,208.8,356.2z M337.6,328.8
		c-16.1,13.4-36.1,30.2-43.6,36.8c-12.8,11.3-27.3,17-40.2,16.1l0.6-52c0.5,0,0.9,0,1.4-0.1c3.3-0.2,6.7-1.4,10.1-3.3
		c24.2-14,65.7-40.4,96.7-73.2c-1,19.2-1.2,38.5-1.2,55.6c-0.2,0.2-0.4,0.4-0.6,0.6C357.7,312,348.4,319.8,337.6,328.8z
		 M388.4,269.4c-5.1,12.4-11.4,22.8-19,31.4c0.1-23.6,0.7-41.1,1.7-57.1c10-11.8,18.4-24.3,24.1-37.3l0.3,24.3
		C395.7,244.6,393.3,257.6,388.4,269.4z M256.1,168.9l2.4-2.1c19.8-17.5,41.1-27.6,67.1-31.7c8.9-1.4,16.7-2.1,23.8-2.1
		c11.6,0,21.1,1.9,28.4,5.6c9.3,4.8,15.4,13.5,16.9,24.1c0.6,4.3,0.7,8.7,0.4,13l-0.2,0l0,2.1c-0.5,5-1.5,10.1-2.9,15
		c-5.4,0.2-10.6,0.4-15.5,0.6c-33.5,1.2-58,2.1-96.6,4.9c-0.5-1.2-0.9-2.3-1.5-3.4c-6.6-12.9-19.5-8.5-24.6-6.5v-21.3L256.1,168.9z
		 M166.4,131.8c12.3,0,23.8,2.2,34.6,5.8c-0.2,8.5-0.1,21.5-0.1,33.3c0,6.2,0,12.9,0,18c-0.2-0.1-0.3-0.2-0.5-0.2
		c-4.5-1.8-18.3-7.2-25.3,6.2c-0.1,0.2-0.2,0.4-0.3,0.6c-9.6,0-13.7-0.3-20.7-0.8c-6.6-0.5-15.4-1.1-33.5-1.9
		c-4.5-13.6-6.3-28.2-1.2-39.7c5.1-11.7,16.8-18.6,34.7-20.6C158.3,132,162.4,131.8,166.4,131.8z"/>
</g>
</svg>
