<?xml version="1.0" encoding="utf-8"?>
<!-- Generator: Adobe Illustrator 18.0.0, SVG Export Plug-In . SVG Version: 6.00 Build 0)  -->
<!DOCTYPE svg PUBLIC "-//W3C//DTD SVG 1.1//EN" "http://www.w3.org/Graphics/SVG/1.1/DTD/svg11.dtd">
<svg version="1.1" id="Layer_1" xmlns="http://www.w3.org/2000/svg" xmlns:xlink="http://www.w3.org/1999/xlink" x="0px" y="0px"
	 width="512px" height="512px" viewBox="0 0 512 512" enable-background="new 0 0 512 512" xml:space="preserve">
<g>
	<path fill="#684C4B" d="M174,298c0.8,0.9,2.2,2.1,4.8,2.4c0.4,0.1,0.9,0.1,1.3,0.1c0,0,0,0,0,0c5.7,0,10.8-4.5,11.7-10.2
		c0.6-3.9-1-7.5-4.1-9c-1.7-0.8-3.2-0.9-4.5-0.8c-2.1,0-5.7,0-8.4,2.3c-4,3.3-3.8,8.9-2.2,13C173,296.4,173.4,297.2,174,298z
		 M179.9,288.7c0.6-0.5,2.4-0.5,3.4-0.5c0.2,0,0.5,0,0.7,0c0,0.2,0,0.5,0,0.8c-0.3,1.9-2.2,3.6-3.9,3.6l-0.1,0
		C179.3,290.8,179.4,289.2,179.9,288.7z"/>
	<path fill="#684C4B" d="M191.8,316c0.6-3.9-1-7.5-4.1-9c-1.6-0.8-3.3-0.8-4.4-0.8c0,0,0,0,0,0c-2.1,0-5.7,0-8.4,2.3
		c-4,3.3-3.7,8.9-2.2,13c0.3,0.7,0.6,1.5,1.3,2.3c0.8,0.9,2.2,2.1,4.8,2.4c0.4,0.1,0.9,0.1,1.3,0.1c0,0,0,0,0,0
		C185.8,326.2,190.9,321.7,191.8,316z M184,314.8c-0.3,1.9-2.2,3.6-3.9,3.6l-0.1,0c-0.6-1.8-0.5-3.4,0-3.8c0.6-0.5,2.4-0.5,3.4-0.5
		c0.2,0,0.5,0,0.7,0C184.1,314.2,184.1,314.5,184,314.8z"/>
	<path fill="#684C4B" d="M174.4,270.2c1.9,1.4,4.1,2.1,6.6,2.1c3.8,0,7.4-1.7,9.7-4.7c2.4-3.1,2.8-7.1,0.8-9.9
		c-1.1-1.5-2.5-2.3-3.5-2.9c-2.5-1.4-5.4-2.7-8.5-2.1c-4.3,0.8-7.4,4.8-8.2,10.3c-0.1,0.7-0.2,1.7,0,2.6
		C171.6,267,172.3,268.7,174.4,270.2z M181.1,260.6c0.8,0,2.2,0.8,3.1,1.2c0.2,0.1,0.4,0.2,0.6,0.3c-0.1,0.2-0.2,0.4-0.4,0.7
		c-0.8,1-2.1,1.6-3.5,1.6c-0.5,0-1.1-0.1-1.8-0.5C179.5,262.1,180.3,260.7,181.1,260.6z"/>
	<path fill="#684C4B" d="M464.9,417.6c0.1-11.8,0.5-25,0.9-39c1.2-38.2,2.5-81.4-2.8-109.4c-1.6-8.3-7.2-15.4-15.1-19
		c-6.4-2.9-12.9-6.2-19.2-9.3c-9.7-4.9-19.8-9.9-29.5-13.8c-4.8-2.4-5.9-6.7-4.2-16.5l-0.3-4.6c-1.7-5.4-8-8-11.7-9.5l-1.4-0.6
		c-0.9-0.4-1.9-0.6-2.8-1l0.6-1.7c0.5,0.1,0.9,0.2,1.4,0.3c0.4,0,0.7,0.1,1,0.1c3.5,0,7.1-1.8,9.7-5c2.2-2.8,3.3-5.9,4.4-8.7l3.6-10
		c0.7-1.8,1.4-3.9,1.6-6.2c0.2-3.1-0.7-6-2.6-7.9c-0.8-0.8-1.7-1.5-2.7-1.9c2.9-1.7,5.1-4.3,6.5-7.5c5.2-12-2-29.8-3.6-33.2
		c-5.8-13.4-16.8-24.5-30.2-30.4c-8.7-3.8-18.9-5.7-30.2-5.7c-1.8,0-3.6,0-5.4,0.1c-12,0.6-21.5,3.5-29.1,8.9
		c-3.5,2.4-6.9,3.8-10.2,5.2c-6.1,2.4-12.4,5-17.7,13.7c-7.7,12.6-9.3,28.7-4.4,41.9c1.2,3.3,2.6,5.9,4,7.9c-3.1,0.4-5.8,2-7.2,4.6
		c-0.8,1.6-1,3.3-1.1,4.7c-0.1,1.7-0.1,3.8,0.7,6c0.7,2,1.9,3.6,3,5l7.7,10c1.9,2.5,5.1,6.7,10.1,7.5c0.6,0.1,1.1,0.2,1.7,0.2
		c0.9,0,1.8-0.2,2.6-0.4c0.4,1,0.9,2,1.4,3.1c-2.2,0.9-4.3,2-6.2,3.5c-0.5,0.4-1.1,0.7-1.7,1.1c-1.7,1-4.2,2.5-5.4,5.4l-1.5,4.8
		c-0.3,4.2-0.3,10.3-0.3,14.4c-6.7,3.7-13.9,6.5-21.1,9.1c-4.9-2.4-9.8-4.6-14.6-6.5c-4.8-2.4-5.9-6.7-4.2-16.5l-0.3-4.6
		c-1.7-5.4-8-8-11.7-9.5l-1.4-0.6c-0.9-0.4-1.9-0.6-2.8-1c0.2-0.6,0.4-1.1,0.6-1.7c0.5,0.1,0.9,0.2,1.4,0.3c0.4,0,0.7,0.1,1,0.1
		c3.5,0,7.1-1.8,9.7-5c2.2-2.7,3.3-5.9,4.3-8.7l3.6-10c0.6-1.8,1.4-3.9,1.5-6.1c0.2-3.1-0.7-6-2.6-7.9c-0.8-0.8-1.7-1.5-2.7-1.9
		c2.9-1.7,5.1-4.3,6.5-7.5c5.2-12-2-29.8-3.5-33.2c-5.9-13.4-16.9-24.5-30.2-30.4c-8.7-3.8-18.8-5.7-30.2-5.7c-1.8,0-3.6,0-5.4,0.1
		c-11.9,0.6-21.5,3.5-29.1,8.9c-3.5,2.4-6.9,3.8-10.2,5.2c-6.1,2.4-12.4,5-17.7,13.7c-7.6,12.6-9.3,28.7-4.4,41.9
		c1.2,3.3,2.5,5.9,4,7.9c-3.1,0.4-5.8,2-7.2,4.6c-0.8,1.6-1,3.3-1.1,4.7c-0.1,1.7,0,3.8,0.7,6c0.7,2,2,3.7,3,5l7.7,10
		c1.9,2.5,5.2,6.7,10.2,7.5c0.6,0.1,1.1,0.2,1.7,0.2c0.9,0,1.8-0.2,2.6-0.4c0.4,1,0.9,2,1.3,3.1c-2.2,0.9-4.3,2-6.2,3.5
		c-0.5,0.4-1.1,0.7-1.6,1.1c-1.7,1-4.2,2.5-5.4,5.4L124,210c-0.3,4.2-0.3,10.3-0.3,14.4c-7.8,4.4-16.5,7.5-24.9,10.5
		c-12.3,4.4-24,8.5-32.8,16.4c-13.9,12.4-13.9,65.5-12.4,133.7c0.3,11.8,0.5,22.9,0.6,32.6H32.1v7.9h447.9v-7.9H464.9z M380,203.8
		c2,0.8,3.5,1.5,4.7,2.2h-10.5l0.6,4.4c0.6,4.8,0.9,9.6,0.9,14.4h-8.7c0-2.1,0-4.3-0.2-6.5c-0.1-0.9-0.4-1.7-0.8-2.4
		c1.9-2,3.7-4.1,5.3-6.3c1.7-2.5,3.1-5,4.4-7.5c0.9,0.3,1.9,0.6,2.8,1L380,203.8z M392,167.3l-3.6,10c-0.9,2.3-1.7,4.7-3.1,6.4
		c-1.1,1.4-2.6,2.2-3.8,2.1c1.9-7.8,2.6-15.4,3-22.1c1.2-0.9,2.5-1.7,3.9-2.2c1.8-0.7,3.6-0.7,4.2-0.1c0.3,0.3,0.5,1.1,0.4,1.9
		C393,164.5,392.5,165.9,392,167.3z M290,184.7c-1.8-0.3-3.5-2.4-5.2-4.6l-7.7-10c-0.8-1-1.5-1.9-1.8-2.8c-0.3-0.7-0.4-1.6-0.3-3
		c0-0.7,0.1-1.2,0.2-1.4c0.1-0.1,0.6-0.4,1.2-0.4c0.8-0.1,1.8,0.2,3.1,0.9c2.7,1.4,5,3.4,6.7,5.9c0.8,4.8,2,9.9,3.9,15.3H290z
		 M284,152.1L284,152.1c-0.2,0-2.4-0.4-5.2-7.9c-4.1-11.1-2.7-24.5,3.7-35.1c3.9-6.5,8.3-8.2,13.9-10.5c3.5-1.4,7.6-3,11.8-6
		c6.3-4.5,14.5-6.9,24.9-7.5c1.7-0.1,3.3-0.1,5-0.1c10.2,0,19.3,1.7,27,5.1c11.6,5.1,21.1,14.7,26.2,26.3c3.8,8.7,6.4,20.4,3.5,27
		c-1,2.3-2.5,3.7-4.8,4.6c-2,0.7-4.6,1.1-7.6,1.1c-12.9,0-30.8-6.8-37.6-9.4c-11.5-4.4-27.2-12.8-37.5-28.2l-6.7-9.9l-0.6,11.9
		C299.4,128.3,288.6,152.1,284,152.1z M292.8,155.1c6.7-7.4,11.4-21.7,13.7-31.9c11,12.5,25,19.8,35.6,23.8c10.4,4,23.4,8.4,35,9.6
		l0,0.6c-0.5,10.7-1,23.2-5.8,35.6l-3.4,7.3c-0.9,1.7-1.9,3.5-3.1,5.2c-1.9,2.9-4.3,5.4-7,7.6c-4.4,1.4-8.6,3.4-12.7,5.3
		c-2.1,1-4.2,2-6.3,2.9c-0.6,0.1-1.1,0.1-1.7,0.1c-2.2-0.9-4.3-1.9-6.6-3c-4.2-2-8.5-4.1-13.1-5.5c-1-0.3-2-0.4-3-0.2
		c-1.5-1.6-3-3.3-4.3-5.2c-1.6-2.3-3-4.6-4.3-6.9l-3.8-7.3c-1.4-2.9-2.6-5.7-3.6-8.5c-0.1-1.1-0.4-2.2-1.1-3.1h0
		C294,171.3,292.8,162.3,292.8,155.1z M358.7,236.5l-2.5,1.9l-12.5-7.4c0,0-0.1-0.1-0.2-0.2c0.3-0.8,0.4-1.7,0.3-2.6
		c5.4-1.2,10.6-3.4,15.2-6.5c0.1,2.2,0,4.4-0.2,6.8C358.7,231.1,358.5,233.9,358.7,236.5z M316.6,228.5c-0.1-1.5-0.2-3-0.2-4.4
		c4.6,2.7,9.8,4.3,15.2,4.8c0,0.5,0.2,1,0.3,1.5l-12.7,7.8l-2.5-1.9C316.9,233.9,316.7,231.1,316.6,228.5z M290.6,206.7
		c0.9-0.5,1.7-1.1,2.5-1.7c1.4-1.1,3-2,4.8-2.6c1.7,3.1,3.5,6.2,5.6,9.3c1.6,2.4,3.4,4.6,5.3,6.5c0,0.1,0,0.2,0,0.2
		c-0.1,0.9-0.2,1.9-0.2,2.9H304c-1.1,0.1-2.6,0.1-4.1,0.2c-0.4,0-0.8,0-1.2,0.1c0.1-2.2,0.2-4.5,0.3-6.7c0-5.3-5-7-9.2-7.8
		C290,207,290.2,206.9,290.6,206.7z M240.3,234.3c2.4,1,4.8,2,7.3,3.1c-7.6,2.8-14.6,5.8-20.8,10l0-3c1.1-10,1.5-20.2,0.6-30.5h3.5
		C230.2,220.6,230.8,229.6,240.3,234.3z M224.4,203.8c2,0.8,3.5,1.5,4.7,2.2h-10.5l0.6,4.4c0.6,4.9,0.9,9.6,0.9,14.4h-8.7
		c0-2.1,0-4.3-0.2-6.5c-0.1-0.9-0.4-1.7-0.8-2.4c1.9-2,3.7-4.1,5.3-6.3c1.7-2.5,3.1-5,4.4-7.5c0.9,0.3,1.9,0.6,2.8,1L224.4,203.8z
		 M236.4,167.3l-3.6,10c-0.8,2.3-1.7,4.7-3.1,6.4c-1.1,1.4-2.6,2.2-3.7,2.1c1.8-7.8,2.6-15.4,3-22.1c1.2-0.9,2.5-1.7,3.9-2.2
		c1.8-0.7,3.6-0.7,4.3-0.1c0.3,0.3,0.5,1.1,0.4,1.9C237.4,164.5,236.9,165.8,236.4,167.3z M134.4,184.7c-1.8-0.3-3.6-2.4-5.2-4.6
		l-7.7-10c-0.7-0.9-1.5-1.9-1.8-2.8c-0.3-0.9-0.3-2.1-0.3-3c0-0.7,0.1-1.2,0.2-1.4c0.1-0.1,0.6-0.4,1.2-0.4c0.8-0.1,1.9,0.2,3.1,0.9
		c2.7,1.4,5,3.4,6.7,5.9C131.4,174.1,132.7,179.3,134.4,184.7C134.5,184.7,134.4,184.7,134.4,184.7z M128.4,152.1L128.4,152.1
		c-0.2,0-2.4-0.4-5.2-7.9c-4.1-11.1-2.7-24.5,3.7-35.1c3.9-6.5,8.3-8.2,13.9-10.5c3.6-1.4,7.6-3,11.8-6c6.4-4.5,14.5-6.9,24.9-7.5
		c1.7-0.1,3.3-0.1,5-0.1c10.2,0,19.3,1.7,27,5.1c11.6,5.1,21.1,14.7,26.2,26.3c3.8,8.7,6.4,20.4,3.6,27c-1,2.3-2.6,3.7-4.9,4.6
		c-2,0.7-4.6,1.1-7.6,1.1c-13,0-30.9-6.8-37.6-9.4c-11.4-4.4-27.2-12.8-37.5-28.2l-6.6-9.9l-0.6,11.9
		C143.8,128.3,133,152.1,128.4,152.1z M137.2,155.1c6.7-7.4,11.4-21.7,13.7-31.9c11,12.5,25,19.8,35.5,23.8c10.4,4,23.4,8.4,35,9.6
		l0,0.6c-0.4,10.7-1,23.2-5.8,35.6l-3.4,7.3c-0.9,1.7-1.9,3.5-3.1,5.2c-1.9,2.9-4.4,5.4-7,7.6c-4.4,1.4-8.6,3.4-12.6,5.3
		c-2.1,1-4.2,2-6.3,2.9c-0.6,0.1-1.1,0.1-1.7,0.1c-2.2-0.9-4.3-1.9-6.5-3c-4.2-2-8.5-4.1-13.1-5.5c-1-0.3-2-0.4-3-0.2
		c-1.5-1.6-3-3.3-4.3-5.2c-1.5-2.3-2.9-4.6-4.2-6.9l-3.8-7.3c-1.4-2.9-2.6-5.7-3.6-8.5c-0.1-1.1-0.4-2.2-1.1-3.1h0
		C138.4,171.3,137.2,162.3,137.2,155.1z M203.1,236.5l-1.7,1.3l-0.9,0.6l-12.5-7.4c-0.1,0-0.2-0.1-0.2-0.2c0.3-0.8,0.4-1.7,0.3-2.6
		c5.4-1.2,10.6-3.3,15.2-6.5c0.1,2.2,0,4.4-0.1,6.8C203.1,231.2,202.9,233.9,203.1,236.5z M161,228.5c-0.1-1.5-0.2-3-0.2-4.4
		c4.6,2.7,9.8,4.3,15.3,4.8c0,0.5,0.1,1,0.3,1.5l-12.7,7.8l-2.5-1.9C161.3,233.9,161.1,231.1,161,228.5z M135,206.7
		c0.9-0.5,1.7-1.1,2.5-1.7c1.4-1.1,3-2,4.8-2.6c1.7,3.1,3.5,6.2,5.6,9.3c1.6,2.4,3.4,4.6,5.3,6.5c0,0.1,0,0.2,0,0.2
		c-0.1,0.9-0.2,1.9-0.2,2.9h-4.5c-1.1,0.1-2.6,0.1-4.1,0.2c-0.4,0-0.8,0-1.2,0.1c0-2.2,0.1-4.5,0.3-6.7c0-5.3-5-7-9.2-7.8
		C134.4,207,134.6,206.9,135,206.7z M169.9,417.6H95.9c-0.8-27.1-0.5-95.4,0.6-118.2l-7.9-0.4c-1.1,22.8-1.4,91-0.6,118.5H62
		c0-9.8-0.3-20.9-0.6-32.8c-1-46.4-2.6-116.7,9.7-127.6c7.7-6.8,18.7-10.7,30.2-14.9c9.5-3.3,19.2-6.8,28.2-12.2l1.9-1.1v-2.2
		c0-2.6,0-7.1,0.1-11.3c0.6-0.1,1.1-0.3,1.6-0.5c0.9,0.2,1.7,0.4,2.2,0.6c-0.7,10-0.2,19.6,1,29v7.4l3.8,13
		c2.7,11.4,6.2,22.6,9.9,34l18.2,62.5c0.8,4,1.5,8.1,2.1,12.2L169.9,417.6z M193.5,417.6l-0.6-43.9c1.2-6.8,2.7-13.7,4.4-20.4
		l7.9-27c1.2-3.7,2.4-7.4,3.6-11.1c-0.5,20.2-0.2,43.9,0.4,69.9c0.3,11.8,0.5,22.9,0.6,32.6H193.5z M197.7,323.9
		c-2.8,9-5.6,18.1-8,27.4l-4.8,16.4l0.7,49.9h-7.9l0.7-49.9l-2.4-8.1c-3.7-18.7-9.6-36.5-15.4-53.8c-1-3.1-2-6.1-3-9.2l-9.7-33.2
		c-1.5-6.5-2.8-12.9-3.7-19.4v-14.5h0.3c1.6-0.1,3.2-0.2,4.1-0.2l3.9,0l0.5,9l-0.2,1.9l0.4,0.3l10,7.5l2.2-1.3
		c5.8-2.8,11.4-6.2,16.6-10l0.8,0.5c5,3.7,10.4,6.8,16,9.5l2.2,1.3l10.1-7.5l0.3-0.2l-0.2-2l0.1-5.4h7.8v10.7c-0.6,5-1.4,10-2.4,15
		c-1.9,4.1-3.4,9.4-4.5,15.9L197.7,323.9z M325.5,417.6h-50.1c0.8-27.5,0.5-95.7-0.6-118.5l-7.8,0.4c1.1,22.8,1.4,91,0.6,118.2
		h-49.9c0-9.8-0.3-20.9-0.6-32.8c-0.7-31.6-1.6-74.4,1.7-101.8c1.9-6.8,3.7-13.8,5.1-20.7l0.6-2.1c0.7-1.3,1.5-2.2,2.3-3
		c7.7-6.8,18.6-10.7,30.2-14.9c0.2-0.1,0.4-0.2,0.7-0.2l10.2-3.8c5.9-2.3,11.8-4.9,17.4-8.2l1.9-1.1v-2.2c0-2.6,0-7.1,0.1-11.3
		c0.6-0.1,1.1-0.3,1.6-0.5c0.9,0.2,1.7,0.4,2.2,0.6c-0.6,10-0.2,19.5,1.1,29v1.7l3.4,17.3l0,0.2l0.4,1.3c1.7,7.1,3.7,14.2,5.9,21.3
		l9.4,30.9l12.9,44.2c0.8,4,1.5,8.1,2.1,12.2L325.5,417.6z M341.3,417.6h-7.9l0.7-49.9l-2.4-8.1c-3.7-18.7-9.6-36.5-15.4-53.8
		c-1-3.1-2-6.2-3-9.3c0,0-8-33.1-10.4-37.4c-0.1-0.2-0.3-0.5-0.4-0.6c-1-4.8-1.9-9.7-2.6-14.6v-14.4h0.3c1.6-0.1,3.2-0.2,4.1-0.2
		l3.9,0l0.5,9l-0.2,1.9l0.4,0.3l10,7.5l2.2-1.3c5.8-2.8,11.4-6.2,16.6-10l0.9,0.5c5,3.7,10.4,6.8,16,9.5l2.2,1.3l10.1-7.5l0.3-0.2
		l-0.2-2l0.1-5.4h7.8v10.7c-0.6,5.4-1.5,10.8-2.6,16.2l-18.7,64.2c-2.9,9.1-5.6,18.2-8,27.5l-4.7,16.3L341.3,417.6z M457.9,378.4
		c-0.4,14-0.8,27.3-0.9,39.2h-26c0.8-27.5,0.5-95.7-0.6-118.5l-7.9,0.4c1.1,22.8,1.4,91,0.6,118.2h-74l-0.6-43.9
		c1.2-6.8,2.7-13.6,4.4-20.4l7.9-27.1c1.3-4.2,2.7-8.3,4-12.4c5.5-16.8,11.1-34,14.7-51.5l2.8-9.8l0-8.1c1.2-10,1.5-20.2,0.6-30.5
		h3.5c-0.7,6.6-0.1,15.6,9.4,20.4c9.7,3.9,19.6,8.9,29.2,13.7c6.4,3.2,13,6.5,19.4,9.4c5.6,2.6,9.6,7.5,10.7,13.3
		C460.4,297.8,459,340.6,457.9,378.4z"/>
	<path fill="#684C4B" d="M343.4,281.2c-1.7-0.8-3.4-0.9-4.5-0.8c-2.1,0-5.7,0-8.4,2.3c-4,3.3-3.8,8.9-2.2,13
		c0.3,0.7,0.6,1.5,1.3,2.3c0.8,0.9,2.2,2.1,4.8,2.4c0.4,0.1,0.9,0.1,1.3,0.1c5.7,0,10.8-4.5,11.7-10.2
		C348,286.3,346.4,282.7,343.4,281.2z M339.6,289c-0.3,1.9-2.2,3.6-3.9,3.6l-0.1,0c-0.6-1.8-0.6-3.4,0-3.8c0.6-0.5,2.4-0.5,3.4-0.5
		c0.2,0,0.5,0,0.7,0C339.7,288.4,339.7,288.7,339.6,289z"/>
	<path fill="#684C4B" d="M347.4,316c0.6-3.9-1-7.5-4.1-9c-1.6-0.8-3.3-0.8-4.4-0.8c0,0,0,0,0,0c-2.1,0-5.7,0-8.4,2.3
		c-3.4,2.8-4.2,7.8-2.2,13c0.3,0.7,0.6,1.5,1.3,2.3c0.8,0.9,2.2,2.1,4.8,2.4c0.4,0.1,0.9,0.1,1.3,0.1
		C341.4,326.2,346.5,321.7,347.4,316z M339.6,314.8c-0.3,1.9-2.2,3.6-3.9,3.6l-0.1,0c-0.6-1.8-0.5-3.4,0-3.8
		c0.6-0.5,2.4-0.5,3.4-0.5c0.2,0,0.5,0,0.7,0C339.7,314.2,339.7,314.5,339.6,314.8z"/>
	<path fill="#684C4B" d="M329.9,270.2c1.9,1.4,4.1,2.1,6.6,2.1c3.8,0,7.4-1.7,9.7-4.7c2.4-3.1,2.8-7.1,0.8-9.9
		c-1.1-1.5-2.5-2.3-3.5-2.9c-2.5-1.4-5.4-2.7-8.5-2.1c-4.3,0.8-7.4,4.8-8.2,10.3c-0.1,0.7-0.2,1.6,0,2.6
		C327.2,267,327.9,268.7,329.9,270.2z M336.7,260.6c0.8,0,2.2,0.8,3.1,1.2c0.2,0.1,0.4,0.2,0.6,0.3c-0.1,0.2-0.2,0.4-0.4,0.7
		c-0.8,1-2.1,1.6-3.5,1.6c-0.5,0-1.1-0.1-1.8-0.5C335.1,262.1,335.9,260.7,336.7,260.6z"/>
</g>
</svg>
