<?xml version="1.0" encoding="utf-8"?>
<!-- Generator: Adobe Illustrator 18.0.0, SVG Export Plug-In . SVG Version: 6.00 Build 0)  -->
<!DOCTYPE svg PUBLIC "-//W3C//DTD SVG 1.1//EN" "http://www.w3.org/Graphics/SVG/1.1/DTD/svg11.dtd">
<svg version="1.1" id="Layer_1" xmlns="http://www.w3.org/2000/svg" xmlns:xlink="http://www.w3.org/1999/xlink" x="0px" y="0px"
	 width="512px" height="512px" viewBox="0 0 512 512" enable-background="new 0 0 512 512" xml:space="preserve">
<g>
	<path fill="#684C4B" d="M304,106.7c-12.7-5.6-27.5-8.4-44.1-8.4c-2.7,0-5.3,0.1-8,0.2c-17.4,0.9-31.2,5.1-42.2,12.9
		c-5.4,3.8-10.5,5.9-15.5,7.9c-8.8,3.5-17.8,7.2-25.4,19.6c-11.1,18.2-13.5,41.5-6.4,60.6c2.5,6.7,5.3,11.5,8.4,14.4
		c-1.1-0.2-2.2-0.3-3.3-0.3c-4.3,0.2-8.1,2.5-9.9,5.9c-1.1,2.1-1.3,4.3-1.4,6.1c-0.1,2.3-0.1,5.3,0.9,8.2c1,2.8,2.7,5,4.2,6.9
		l11.5,14.8c3.6,4.7,7.7,9.4,13.9,10.4c0.7,0.1,1.4,0.2,2.1,0.2c1.8,0,3.5-0.4,5-1.2c4,9.7,9.2,19.9,16.1,30.4
		c10.6,16.1,26.6,25.1,45.1,25.2c0.1,0,0.2,0,0.4,0c20.3,0,40.3-10.8,52-28.1c5.7-8.4,9.7-17.1,12.5-25.7c1.1,0.4,2.2,0.8,3.5,0.9
		c0.4,0,0.9,0.1,1.3,0.1c4.7,0,9.5-2.5,12.9-6.8c3.1-3.8,4.7-8.3,6.1-12.3l5.4-14.8c0.9-2.6,2-5.5,2.2-8.7c0.3-4-0.9-7.8-3.4-10.3
		c-2.1-2.2-5.1-3.4-8.5-3.6c0.3-0.1,0.6-0.2,0.9-0.3c6-2.2,10.4-6.3,12.9-12.2c7.4-17.2-3.1-42.9-5.3-47.9
		C339.4,131.4,323.4,115.3,304,106.7z M182.7,217c0,0.9,0.1,1.8,0.2,2.8c-1-0.8-2.1-1.5-3.2-2.2C180.7,217.5,181.7,217.3,182.7,217z
		 M190.7,257.7c-0.5,0.5-1.6,0.7-2.7,0.5c-3.4-0.6-6.2-3.9-9-7.5L167.6,236c-1.2-1.5-2.4-3.1-3-4.7c-0.6-1.6-0.6-3.6-0.5-5.2
		c0.1-1,0.2-2.2,0.5-2.9c0.5-0.9,1.8-1.6,3.3-1.7c1.6-0.1,3.4,0.4,5.7,1.6c4.3,2.2,8,5.5,10.7,9.5l0.1-0.1c1.3,7.7,3.3,16.1,6.4,25
		C190.8,257.6,190.8,257.7,190.7,257.7z M300.9,288c-10.4,15.3-28.1,24.9-45.8,24.7c-15.8-0.1-29.5-7.8-38.6-21.6
		c-8-12.1-13.6-23.7-17.6-34.5c-0.1-1.4-0.5-2.8-1.3-3.9l-0.1,0.1c-5.3-16-7-30-7.1-41.1c10.4-11.2,18.1-35.7,21.2-50.9
		c16.4,20.1,38.3,31.6,54.7,37.8c16,6.1,35.9,12.9,53.3,14.3l-0.1,2.7C318.5,237,317.4,263.7,300.9,288z M343.5,224.6
		c-0.1,2.1-0.9,4.3-1.8,6.5l-5.4,14.8c-1.3,3.6-2.6,7.3-4.9,10.1c-1.6,2-4.4,4.1-7.3,3.8c-0.8-0.1-1.5-0.4-2-0.7
		c3.2-12.4,4.3-24.5,4.8-35.1c2.1-1.7,4.4-3.1,7-4c2.7-1,6.6-1.5,8.4,0.3C343.2,221.2,343.6,222.8,343.5,224.6z M327.4,214.3
		l0.1-1.2c1,0,1.9-0.1,2.8-0.1C329.3,213.4,328.3,213.8,327.4,214.3z M346,195.7c-1.7,3.9-4.4,6.5-8.3,7.9c-3.2,1.2-7.3,1.8-12,1.8
		c-19.6,0-46.5-10.3-56.6-14.1c-17.3-6.6-41.1-19.3-56.7-42.6l-6.6-9.9l-0.6,11.9c-1,21.6-13.8,49.2-22,57l-0.6,0c0,0.2,0,0.4,0,0.6
		c-1.2,1.1-2.4,1.7-3.3,1.7l-0.4,0c-1.4-0.2-5-1.8-9.2-13c-6.3-17-4.1-37.6,5.7-53.8c6.2-10.2,13-12.9,21.6-16.4
		c5.2-2.1,11-4.4,17.2-8.7c9.8-6.9,22.2-10.6,38.1-11.4c2.5-0.1,5-0.2,7.5-0.2c15.5,0,29.2,2.6,40.9,7.8
		c17.7,7.8,32.2,22.4,39.9,40.1C345.1,164,351.1,183.9,346,195.7z"/>
	<path fill="#684C4B" d="M246.4,385.3c1.7,1.2,3.7,1.8,6.2,1.8c1.1,0,2.3-0.1,3.3-0.3c1.6-0.2,3.9-0.6,6-1.9
		c5.3,3.6,11.1,7.5,17.5,10.4c7.4,3.4,14.5,5.2,21.1,5.2c0.5,0,1.1,0,1.6,0c1.5-0.1,3.3-0.2,5.1-1c3.9-1.7,6.4-5.9,6.3-10.7
		c0-3.8-1.5-7.2-3-10c-1.6-3.2-3.3-5.1-5-7c-0.8-0.9-1.6-1.8-2.5-3c-0.1-0.1-0.1-0.2-0.2-0.3c0.3-0.3,0.7-0.7,1.1-1
		c0.8-0.7,1.6-1.5,2.2-2.3c4-5,4.7-6.1,6.9-11.4c2.1-5,0.1-11.4-4.4-14.5c-5.1-3.5-11.2-1.9-15.3-0.4c-11.5,4.1-22.4,10.4-31.6,18.3
		l-12.6-0.4c-0.3,0-0.8,0-1.5,0.1c-5.4-3.7-11.3-7.6-17.8-10.7c-8-3.7-15.6-5.4-22.8-5.2c-1.5,0.1-3.3,0.2-5.1,1
		c-3.9,1.7-6.4,5.9-6.3,10.7c0,3.8,1.5,7.2,3,10c1.6,3.2,3.3,5.1,5,7c0.8,0.9,1.6,1.8,2.5,3c0.1,0.1,0.1,0.2,0.2,0.3
		c-0.3,0.3-0.7,0.7-1.1,1c-0.8,0.7-1.6,1.5-2.2,2.3c-4,4.9-4.7,6.1-6.9,11.4c-2.1,5-0.1,11.4,4.4,14.5c2.3,1.6,4.7,2.1,7.1,2.1
		c3,0,5.9-0.8,8.2-1.7C226.9,398.8,237.4,392.8,246.4,385.3z M296,346.2c4-1.4,6.7-1.6,8.2-0.5c1.5,1,2.2,3.4,1.5,5
		c-1.9,4.6-2.2,5.1-5.7,9.5c-0.4,0.5-0.9,0.9-1.4,1.4c-1.8,1.6-5,4.6-3.6,8.9c0.4,1.3,1.2,2.3,1.8,3.1c1,1.3,1.9,2.3,2.8,3.3
		c1.6,1.8,2.7,3.1,3.9,5.4c1,2,2.1,4.4,2.1,6.6c0,1.6-0.7,3-1.6,3.4c-0.6,0.3-1.5,0.3-2.2,0.4c-5.8,0.3-12.3-1.2-19.1-4.4
		c-6-2.8-11.7-6.6-16.9-10.1c0.2-1.3,0.1-2.6,0.1-3.5l-0.3-10.4C274.4,356.3,284.8,350.1,296,346.2z M250.2,374.7l0.5-10.1l7.1,0.2
		l0.3,9.9c0.1,2-0.1,3.2-0.4,3.6c-0.4,0.4-2,0.6-2.7,0.7c-0.8,0.1-1.5,0.2-2.3,0.2c-0.6,0-1.5-0.1-1.8-0.4
		C250,378.1,250.2,375.7,250.2,374.7z M204.9,395.8c-1.5-1-2.2-3.4-1.5-5c1.9-4.6,2.2-5.1,5.7-9.5c0.4-0.5,0.9-0.9,1.4-1.4
		c1.8-1.6,5-4.6,3.6-8.9c-0.4-1.3-1.2-2.3-1.8-3.1c-1-1.3-1.9-2.3-2.8-3.3c-1.6-1.8-2.7-3.1-3.9-5.4c-1-2-2.1-4.4-2.1-6.6
		c0-1.6,0.7-3,1.6-3.4c0.6-0.3,1.5-0.3,2.2-0.4c5.9-0.3,12.3,1.2,19.1,4.4c5.8,2.7,11.4,6.4,16.5,9.9l-0.5,11.2c0,1-0.1,2.3,0.1,3.8
		c-8.5,7.4-18.6,13.3-29.3,17.1C209.2,396.7,206.5,396.8,204.9,395.8z"/>
</g>
</svg>
