<?xml version="1.0" encoding="utf-8"?>
<!-- Generator: Adobe Illustrator 18.0.0, SVG Export Plug-In . SVG Version: 6.00 Build 0)  -->
<!DOCTYPE svg PUBLIC "-//W3C//DTD SVG 1.1//EN" "http://www.w3.org/Graphics/SVG/1.1/DTD/svg11.dtd">
<svg version="1.1" id="Layer_1" xmlns="http://www.w3.org/2000/svg" xmlns:xlink="http://www.w3.org/1999/xlink" x="0px" y="0px"
	 width="512px" height="512px" viewBox="0 0 512 512" enable-background="new 0 0 512 512" xml:space="preserve">
<g>
	<path fill="#684C4B" d="M412.2,395.2l-0.2-3.9c-1.6-33.5-2.4-69.5-3.1-104.3c-0.7-34.9-1.5-71-3.1-104.6l-0.2-3.8l-3.8,0
		c-18.1,0.1-36.5,0-54.9-0.1c0-2,0-4-0.1-5.9c0-3.6-0.1-7.1,0-11c1.3-0.1,2.7-0.1,4-0.2l3.8-0.2l0-9.4c14-0.1,29.2-0.3,47.5-0.7
		l3.7-0.1l0.2-3.7c0.5-9.6,0-23.8,0-24.4l-0.1-3.7l-3.7-0.1c-11.6-0.2-25.8-0.4-38.9-0.6l-8.7-0.1l0-11l-3-0.7
		c-4.9-1.2-11-0.8-16.6-0.1l-2.2,0.3c-9.4,1.1-19.1,1.1-28.5,0.1l-4.1-0.5l-0.2,4.2c-0.1,2.4-0.2,4.9-0.3,7.4
		c-8.8,0-17.6-0.1-26.4-0.1c-17.8,0-36.3,0.1-54.9,0.3c-0.1-2.1-0.1-4-0.3-5.7l-0.2-3.5l-3.5-0.1c-6.7-0.3-17-0.4-27.5-0.4
		c-5.6,0-10.9,0-15,0.1l-3.9,0.1l0.2,9.2c0,0.4,0,0.8,0,1.1c-21.5,0.4-43,1-63.9,1.7l-4.2,0.1l0.4,4.2c0.7,6.7,1.3,13.5,2,20.3
		l0.5,5.7l3.2,0.3c5.4,0.6,12.2,0.8,20.8,0.8c11,0,23.2-0.4,35-0.9c2.7-0.1,5.4-0.2,8.1-0.3c0.1,0.4,0.1,0.8,0.2,1.1
		c0.2,1.4,0.7,3.9,2.7,5.7c1.9,1.7,4.4,1.9,5.7,2c0.1,0,0.3,0,0.5,0c0.1,1.5,0,3.1-0.1,4.7l-0.8,12.9c-23.9,0.4-45.4,1.1-65.6,2.2
		l-3.4,0.2l-0.3,3.4c-5.4,56.1-8,131.9-7.1,208l0,3.7l3.6,0.2c50.3,3.1,101.3,4.7,151.8,4.7c50.3,0,101.2-1.6,151.3-4.7L412.2,395.2
		z M363.1,126.6c11.7,0.1,24.3,0.3,35.1,0.5c0.1,4,0.2,10.5,0,16.3c-16.6,0.3-30.6,0.5-43.6,0.6c0-5.8,0-11.7-0.1-17.5L363.1,126.6z
		 M339.1,172.7c0,1.8,0,3.8,0.1,5.7c-6.2-0.1-12.4-0.1-18.6-0.2c0.3-4.4,0.6-11.3,0.7-16.1c0.5,0,0.9,0,1.4,0c0,0,0,0,0,0
		c5.4,0,10.9-0.1,16.3-0.3C339,165.7,339,169.1,339.1,172.7z M212.2,168.9c0-2.9-0.1-5.9,0-9c0.9-0.3,1.8-0.6,2.6-1.2
		c2.8-2,3.8-5,4-7.6c27.2,0.4,54,0.7,81.3,0.9c0.2,2.2,0.7,6.2,4,8.5c2.2,1.5,4.8,1.6,6.3,1.6c1,0,1.9,0,2.9,0
		c-0.1,4.3-0.4,10.7-0.7,16.1c-3,0-6-0.1-9-0.1c-27.1-0.3-55-0.7-82.5-0.7c-3,0-5.9,0-8.9,0C212.3,174.5,212.3,171.6,212.2,168.9z
		 M333.5,115l2.3-0.3c3.8-0.5,7.6-0.9,10.8-0.6l0.1,29.4c0,1.5,0,3,0,4.5v4h0l0,1.8c-1.7,0.1-3.3,0.1-5,0.2l-22.9,0.3
		c-2.7,0-5.5,0-8.2-0.1c-0.5,0-1.7,0-2-0.2c0,0-0.5-0.4-0.7-3.1c-0.1-1.7-0.2-3.5-0.3-5.2c-0.2-2.9-0.3-5.7-0.4-8.6
		c0-0.9-0.1-1.7-0.1-2.6c-0.1-4-0.1-8,0-12.1c0-2.3,0.1-4.6,0.2-6.9C316.1,116.1,324.9,115.9,333.5,115z M299.3,126.1
		c0,0.7,0,1.4,0,2.1c0,1.6,0,3.3,0,4.9c0,2,0.1,4,0.2,6c0,1,0.1,2.1,0.1,3.1c0,0.6,0,1.2,0.1,1.8c-27.2-0.1-53.9-0.5-81-0.9
		c0-0.4,0-0.9,0-1.4c0-0.9-0.1-1.7-0.1-2.7c0-0.2,0-0.4,0-0.6c-0.1-2.5-0.1-5.2-0.1-7.9c0-0.6,0-1.2,0-1.8l0-2.6
		C246,126.1,272.9,126,299.3,126.1z M186.7,116.6c8.6,0,17.1,0.1,23.6,0.3c0.1,2.9,0.2,6.2,0.2,9.6l0,0.5c0,1,0,2.1,0,3.1
		c0,0.4,0,0.8,0,1.2c0,2.7,0.1,5.4,0.1,7.9c0,0.5,0,1,0,1.5c0,0.9,0,1.8,0.1,2.6c0.1,1.4,0.1,2.8,0.2,4c0,0,0,0,0,0v3.1
		c-0.1,1.2-0.4,1.7-0.7,1.8c-0.5,0.3-1.9,0.4-2.7,0.4c-1.9,0.1-4.5,0.1-7.5,0.1c-6.8,0-16.3-0.2-21.2-0.6c-0.2,0-0.7-0.1-1-0.1
		c-0.1-0.3-0.2-0.9-0.2-1.1c-0.3-1.9-0.6-4.2-0.8-6.6c0-0.5-0.1-1-0.1-1.5c-0.7-8-0.9-17.5-1-25l0-1.3
		C179,116.6,182.8,116.6,186.7,116.6z M168.9,143.4c-2.4,0.1-4.9,0.2-7.5,0.3c-11.7,0.4-23.8,0.9-34.7,0.9c-6.7,0-12.2-0.2-16.7-0.5
		c-0.5-5.1-1-10.2-1.5-15.4c19.5-0.6,39.5-1.2,59.6-1.6c0,1.2,0.1,2.5,0.1,3.7c0,0.2,0,0.4,0,0.6c0.1,2,0.2,4,0.3,6
		c0.1,1.3,0.2,2.6,0.2,3.9C168.8,142,168.8,142.7,168.9,143.4z M186.6,165.3c0.1-1.4,0.2-2.9,0.2-4.4l17.5-0.3c0,3,0,5.7,0.1,8.4
		c0,2.7,0.1,5.5,0,8.4c-6.4,0-12.5,0.1-18.5,0.2L186.6,165.3z M257,392.2c-49,0-98.7-1.5-147.6-4.5c-0.7-73.1,1.7-145.6,6.8-200.1
		c30.7-1.6,64.1-2.3,105-2.3c27.4,0,55.4,0.3,82.4,0.7c31.2,0.4,63.4,0.7,94.6,0.6c1.5,32.4,2.2,67,2.9,100.6
		c0.7,33.6,1.4,68.2,2.9,100.7C355.2,390.7,305.8,392.2,257,392.2z"/>
	<path fill="#684C4B" d="M334,336.2c-2.7,0.4-4.7,0.3-6.1-0.5c-2.6-1.3-3.7-4.8-3.5-7.6c0.1-1.8,0.6-3.6,1.5-5.6c0.3,0,0.6,0,0.9,0
		c10.1,0.2,17.9-2.3,22.5-7c3.1-3.2,4.6-7.2,4.4-11.7c-0.1-3.7-2.3-7-5.7-8.6c-3.3-1.5-7.1-1.1-10,1.1c-5.7,4.4-10.7,9.6-14.8,15.4
		c-0.1-1,0.1-2,0.5-2.9c0.6-1.1,1-2.2,1.4-3.2c0.8-2.1,1.2-2.9,2.6-3.9l-4.1-6.7c-8.4,4.8-13.4,11.1-18.6,17.8c-1,1.3-2,2.6-3.1,3.9
		l-1.2,1.5c-5.1,6.3-10.3,13-16.7,12.3c-0.7-0.1-1.1-0.2-1.1-0.1c0-0.3,0.1-1,0.4-2l4-14.5c0.8-3.1-0.2-6.2-2.7-8.1
		c-2.5-2-5.9-2.2-8.7-0.7c-0.4,0.2-0.8,0.4-1.1,0.6c0-1.5-0.3-3.2-1.3-4.8c-1.8-2.7-4.8-3.4-5.9-3.7c-4.6-1.1-8.9-0.5-12.2,1.7
		c-4.4,3-6.1,9-3.7,13.4c1.9,3.5,5.7,5.5,10.5,5.3c-4.5,7.1-11.4,12.8-19.4,15.6c-3.9,1.3-9.4,1.9-11.9-1c-1.5-1.7-2-4.6-1.3-7.9
		c1.3-7,10.4-14.5,17.9-16.6c0.2,0,0.3-0.1,0.5-0.1l-2-7.6c-0.2,0.1-0.4,0.1-0.6,0.2c-4.8,1.3-9.7,3-14.9,4.7
		c-14.9,4.9-30.2,10-44.2,8.3l-1.6-0.2c-1.4-0.2-2.9-0.4-4.4-0.5c4.4-14,7-28.5,9.6-42.7c0.2-1.2,0.4-2.5,0.7-3.7
		c9.4-6.6,17.6-15.2,23.2-27.3c1.9-4,2.5-8.7,2-14.6c-0.1-1.2-0.4-2.3-1-3.2c-1-1.5-2.6-2.6-4.7-3.1c-5.6-1.4-11.9,1.2-16.1,6.5
		c-3.3,4.3-4.7,9.3-5.9,14.2c-1.8,7.5-3.3,15.3-4.7,22.9c-9,5.8-19.4,9.8-30.1,13.6l2.6,7.4c8.7-3.1,17.4-6.5,25.6-10.9
		c-2.4,13.6-5.1,27.5-9.4,40.7c-2.9,0.2-5.9,0.7-8.7,1.8c-4.9,2-9.1,6.3-10.8,11.3c-1.3,4-1,8,1,11.3c1.1,1.9,2.7,3.3,4.5,4
		c5,2.1,10.5-1,14-7.8c2.1-4.1,4-8.4,5.6-12.7c2,0.1,4,0.4,6.1,0.7l1.7,0.2c13.2,1.6,26.7-1.9,40-6.1c-1.7,2.5-2.9,5.3-3.4,8.1
		c-1.1,5.8,0.1,11.1,3.2,14.6c4.3,4.9,12,6.1,20.4,3.2c12.1-4.2,21.9-13.5,26.9-25.2c2.6-0.9,5.1-2.1,7.4-3.5l-4,14.5
		c-0.5,1.7-1.3,4.9,0.3,7.9c1.4,2.4,4,3.9,7.3,4.1c10.6,0.8,17.7-8.1,23.5-15.3l1.2-1.5c1.1-1.4,2.2-2.7,3.2-4
		c1.4-1.8,2.8-3.6,4.1-5.2c0.1,1,0.3,2,0.6,3c0.6,1.6,1.4,3,2.5,4.1c-1.1,2.4-1.9,5.1-2.1,8c-0.4,6.5,2.7,12.6,7.9,15.2
		c2,1,4.3,1.5,7,1.5c1.2,0,2.5-0.1,3.8-0.3c10.1-1.6,18.8-7.4,26-12.9l-4.8-6.3C350,329.8,342.4,334.9,334,336.2z M342.9,302.6
		c0.3-0.3,0.7-0.4,1-0.4c0.3,0,0.6,0.1,0.8,0.2c0.3,0.1,1.1,0.6,1.2,1.8c0.1,2.3-0.7,4.3-2.2,5.9c-2.5,2.5-6.9,4.1-12.7,4.5
		C334.4,310.1,338.4,306,342.9,302.6z M195.7,240.3c1-4,2.1-8.1,4.5-11.2c1.5-1.9,4.1-3.7,6.8-3.7c0.3,0,0.6,0,1,0.1
		c0.3,4.1-0.2,7.3-1.4,9.9c-3.6,7.7-8.3,13.8-13.9,18.9C193.6,249.6,194.5,244.9,195.7,240.3z M165,329.2c-1.5,3-3.4,4.4-3.9,4.2
		c-0.1,0-0.4-0.3-0.7-0.8c-1-1.7-0.7-3.5-0.3-4.7c0.9-2.8,3.4-5.4,6.2-6.5c0.9-0.4,1.8-0.6,2.7-0.8
		C167.8,323.4,166.4,326.3,165,329.2z M266.7,307.4c-0.1,0.6-0.3,1.2-0.5,1.7c-0.2,0.1-0.4,0.1-0.7,0.2c-2.8,0.7-6.1,0.7-6.9-0.7
		c-0.4-0.8,0.2-2.4,1.2-3.1c0.9-0.6,2-0.9,3.4-0.9c0.8,0,1.7,0.1,2.5,0.3c0.9,0.2,1.2,0.4,1.2,0.4
		C267,305.6,267.1,306.1,266.7,307.4z"/>
</g>
</svg>
