<?xml version="1.0" encoding="utf-8"?>
<!-- Generator: Adobe Illustrator 18.0.0, SVG Export Plug-In . SVG Version: 6.00 Build 0)  -->
<!DOCTYPE svg PUBLIC "-//W3C//DTD SVG 1.1//EN" "http://www.w3.org/Graphics/SVG/1.1/DTD/svg11.dtd">
<svg version="1.1" id="Layer_1" xmlns="http://www.w3.org/2000/svg" xmlns:xlink="http://www.w3.org/1999/xlink" x="0px" y="0px"
	 width="512px" height="512px" viewBox="0 0 512 512" enable-background="new 0 0 512 512" xml:space="preserve">
<g>
	<path fill="#684C4B" d="M318.5,163.1c-44-2.2-88.8-2.3-132.8-0.4c-6.8,0.3-12.2,5.8-12.5,12.6c-0.7,20.2-0.2,38,0.4,55.3
		c0.5,17.3,1.1,35.2,0.4,55.7c-0.2,7.2,5.2,13.2,12.2,13.5c21.8,0.8,40.5,1.1,58.7,1.1c0,0,0,0,0,0c21,0,43.2-0.5,72.1-1.6
		c0.4,0,0.9,0,1.3,0c2.8,0,6.5,0,9.2-3.1c2.3-2.7,2.4-6.2,2.4-8.3c0.2-19.5,0.4-38.7,0.5-57.8l0.5-53.8
		C331,169.2,325.5,163.4,318.5,163.1z M322.5,230c-0.2,19.2-0.3,38.3-0.5,57.8c0,0.9,0,2.7-0.5,3.3c-0.3,0.4-2.2,0.4-3.3,0.4
		c-0.5,0-1.1,0-1.6,0c-28.8,1.1-50.9,1.6-71.8,1.6c0,0,0,0,0,0c-18.2,0-36.7-0.4-58.4-1.1c-2.6-0.1-4.7-2.5-4.6-5.4
		c0.7-20.7,0.2-38.7-0.4-56.2c-0.5-17.1-1.1-34.8-0.4-54.8c0.1-2.7,2.3-4.9,4.9-5c20.7-0.9,41.6-1.4,62.3-1.4
		c23.2,0,46.7,0.6,69.8,1.7c2.8,0.1,4.9,2.4,4.9,5.2L322.5,230z"/>
	<path fill="#684C4B" d="M137.1,357.9l1.3,3.4l3.5-1c10.4-3.1,21.3-6.4,33.1-10.1c13.9,0.4,28.3,0.6,43.9,0.7
		c30.3,13.8,58.9,26,89.2,38.8c15.6,6.6,31.4,13.4,47.9,20.5c0.9,0.4,1.9,0.5,2.8,0.5c0.7,0,1.3-0.1,2.1-0.3c2.9-1,4-3.6,4.6-4.7
		c5.6-12.5,25.6-59.4,43.2-100.7c15.8-37.2,30.8-72.3,33.2-77.5l1.6-3.4l-3.4-1.7c-32.6-16.6-62.7-30.6-90.6-43.3
		c-0.1-16-0.1-27.6-0.1-30.5l0.1-3.8l-3.8-0.2c-27.8-1.7-53.8-2.6-79.7-3.2c-5-14.6-9.5-28-10.5-31.1l-1.1-3.6l-3.7,1
		c-44.3,11.8-83.1,24.1-124.2,37.2c-17.5,5.6-35.7,11.3-54.3,17.1l-3.7,1.1l1.1,3.7c18.2,60.7,34,102.5,53.9,155.4
		C127.9,333.4,132.4,345.3,137.1,357.9z M156.7,294.7c-3.4,1-6.8,2-10.4,3.1c-2.5,0.7-5.3-1-6-3.6c-5.9-19.9-12.1-36.8-18.1-53.2
		c-5.9-16.1-12-32.7-17.7-51.8c-0.8-2.6,0.6-5.4,3.1-6.3c15.7-6,31.5-11.8,47-17.1c-0.1,5.8-0.2,11.4-0.2,16.9c0,0.2,0,0.4,0,0.6
		c0,3.9,0,7.8,0,11.6c0,0.6,0,1.3,0,1.9c0,0.9,0,1.8,0,2.7c0,0.1,0,0.2,0,0.3c0,0.8,0,1.5,0,2.3c0,1.6,0,3.2,0,4.8
		c0,1.3,0,2.6,0,3.9c0,1.4,0,2.9,0,4.3c0,0.6,0,1.2,0,1.8c0,0.1,0,0.2,0,0.3c0,0.9,0,1.7,0,2.6c0,2.9,0.1,5.8,0.1,8.7
		c0,0.1,0,0.2,0,0.2c0,0.8,0,1.6,0,2.4c0,0.4,0,0.8,0,1.1c0.1,4.9,0.2,9.8,0.3,14.7c0,0.1,0,0.2,0,0.3c0.1,4.8,0.3,9.7,0.4,14.6
		c0,0.4,0,0.9,0,1.3c0.1,4.6,0.3,9.3,0.5,14c0,0.9,0.1,1.7,0.1,2.6c0.2,4.3,0.3,8.7,0.5,13.1C156.6,293.3,156.6,294,156.7,294.7z
		 M349.7,210c18.4,8.2,36.7,16.8,54.5,25.6c2.5,1.2,3.5,4.2,2.4,6.8c-9.6,21.5-18.9,42.4-28.4,63.5l-17.2,38.5
		c-0.3,0.7-1.1,2.4-1.7,2.8c0,0,0,0-0.2,0c-0.7,0-1.9-0.5-3-1c-0.5-0.2-1-0.4-1.5-0.6c-1.5-0.6-2.9-1.1-4.4-1.7c0,0,0-0.1,0-0.1
		c0,0,0-0.1,0-0.1c0-0.1,0-0.2,0-0.3c0-0.3,0-0.7,0.1-0.9c0-0.8,0-1.8,0-2.9c0-2.2,0-4.9,0-8c0-20.3-0.3-58.8-0.6-96.2l0-0.5
		L349.7,210z M433.2,227.6c-4.7,10.7-17.4,40.5-31.8,74.3c-17.6,41.3-37.5,88.1-43.1,100.6c0,0,0,0.1-0.1,0.1
		c-16.1-7-31.7-13.6-47.1-20.1c-24.8-10.5-48.5-20.6-72.9-31.5c18,0,35.8-0.2,53.8-0.3c16.8-0.1,33.8-0.3,51.5-0.3
		c0.1,0,0.3,0,0.4-0.1c0.3,0,0.6-0.1,0.9-0.1c2.3,0.9,4.6,1.8,7,2.7c0.4,0.2,0.8,0.3,1.2,0.5c1.8,0.8,3.8,1.6,6.1,1.6
		c1.3,0,2.5-0.3,3.6-0.8c3.3-1.6,4.7-4.9,5.5-6.7l17.2-38.5c9.4-21.1,18.8-42.1,28.4-63.5c2.8-6.5,0.1-13.9-6.1-17
		c-18.9-9.4-38.4-18.5-58-27.1l-0.1-13.7C375.4,199.4,403.3,212.4,433.2,227.6z M341.6,175.4L341.6,175.4l0.1,20.4
		c0.1,10.6,0.2,22.2,0.3,34.4c0.4,46,0.7,98.2,0.6,112.1c0,0,0,0.1,0,0.1c-17.8,0-35.1,0.2-52.1,0.3c-15.8,0.1-31.3,0.2-47,0.3
		c-6.4,0-12.8,0-19.3,0c-21-0.1-39.7-0.4-57.8-1c-0.4-12.4-0.9-24.1-1.3-35.4c-0.6-16.3-1.2-31.6-1.7-46.7c0-1.5-0.1-3-0.1-4.4
		c0-0.3,0-0.7,0-1c-0.9-30.2-1.3-59.7-0.5-94.1c0.1-4.2,0.2-8.5,0.3-12.9c8.7,0.2,17.2,0.3,25.6,0.5c1.3,0,2.7,0,4,0.1
		c5.4,0.1,10.9,0.2,16.2,0.2l34.5,0.5c6.6,0.1,13.2,0.2,19.8,0.4l5.6,0.1l0,0c23.6,0.5,47.5,1.4,72.7,2.9
		C341.5,156.8,341.5,165,341.6,175.4z M257.7,141.1c-3.8-0.1-7.7-0.2-11.5-0.2c-2.6-5.6-9-8.8-15.3-7.1c-8,2.2-15.3,4.4-22.5,6.5
		c-1.9,0-3.8-0.1-5.7-0.1c-10.1-0.1-20.3-0.3-30.7-0.5c-1.1,0-2.2,0-3.3-0.1c26.1-8.1,52.2-16,80.5-23.5
		C250.8,121,253.8,129.7,257.7,141.1z M128.9,152.2c8.8-2.8,17.5-5.6,26.2-8.3c-0.1,4.6-0.3,9.1-0.4,13.5
		c-16.5,5.6-33.3,11.6-50,18.1c-6.3,2.4-9.7,9.4-7.8,15.9c5.7,19.4,11.9,36.1,17.8,52.3c6,16.3,12.2,33.1,18,52.7
		c1.6,5.6,6.7,9.4,12.4,9.4c1.2,0,2.3-0.2,3.4-0.5c2.9-0.8,5.7-1.7,8.5-2.5c0.2,5.8,0.5,11.7,0.7,17.8c0,0.3,0,0.6,0,0.9
		c0.3,7.9,0.6,16,0.9,24.5l0,1c-5.3,1.6-10.5,3.2-15.5,4.7c-4.2-11.3-8.3-22.1-12.2-32.4c-19.5-51.7-35-92.7-52.6-151.1
		C95.7,162.8,112.6,157.4,128.9,152.2z"/>
</g>
</svg>
