<?xml version="1.0" encoding="utf-8"?>
<!-- Generator: Adobe Illustrator 18.0.0, SVG Export Plug-In . SVG Version: 6.00 Build 0)  -->
<!DOCTYPE svg PUBLIC "-//W3C//DTD SVG 1.1//EN" "http://www.w3.org/Graphics/SVG/1.1/DTD/svg11.dtd">
<svg version="1.1" id="Layer_1" xmlns="http://www.w3.org/2000/svg" xmlns:xlink="http://www.w3.org/1999/xlink" x="0px" y="0px"
	 width="512px" height="512px" viewBox="0 0 512 512" enable-background="new 0 0 512 512" xml:space="preserve">
<g>
	<path fill="#684C4B" d="M153.5,329.6c5,1.9,10.3,2.9,15.7,2.9c6.5,0,13.3-1.4,20.1-4.1l25-7.8c-0.1,17,0,25.4,0,33.5
		c0.1,8.8,0.2,17.9,0,38l0,3.8l3.8,0.2c29.3,1.3,53.6,1.8,78.7,1.8c0,0,0,0,0,0c22,0,43-0.4,67.2-0.9c19-0.4,40.5-0.8,66.6-1.2
		l4.3-0.1l-0.4-4.2c-1.8-19.5-1.4-28.8-1-38.6c0.4-9.6,0.8-19.5-1-39.6l-0.3-3.3l-0.7,0c-4.3-17.9-17.5-31.6-34-34.6
		c-5.3-1-10.6-1-15.7-1c-1.1,0-2.3,0-3.5,0c1.7-5.2,2.4-11.5,2.7-15.3c1.6-19.3-3.6-36.8-14.1-47.9c-5.6-5.9-12.7-10.3-20.7-12.7
		c-2.1-0.6-4.1-1-6.2-1.2c1.4-1.1,2.8-2.2,4-3.2c8.3-6.9,12.2-11.2,18.3-17.7l3.9-4.2l-2.8-2.7c-2.7-2.5-4-4.4-5.6-6.8
		c-0.9-1.3-1.9-2.8-3.2-4.4l-1.1-1.5l-48.7-1c-2,0-5.1-0.1-7.5-0.1l-5.6,0l-1.1,2c-0.5,0.9-4.7,8.6-6,12.8l-0.6,2.1l1.4,1.6
		c4.4,5,9.4,9.8,14.2,14.5c3.2,3.1,6.6,6.3,9.7,9.6c-11.9,2.7-22.8,9.4-30.1,18.7c-7.2,9.2-11.2,22.1-10.7,35.4
		c0.2,7.2,1.5,16,5.5,22.4c-0.3,0-0.7,0-1,0c-10.3,0-23.1,0-33.7,6.1c-8.2,4.7-13.9,12.4-18.2,20.1c-7.8-17.5-14.2-34.3-20.9-52
		c-6.8-17.8-13.8-36.2-23-57.4c-2.1-4.9-4-10.6-5.8-16.1c-1.7-5.1-3.4-10.4-5.3-15.1c-5.9-14.3-11.4-27.3-19.6-40.8l-2.2-3.6
		l-3.4,2.4c-2.8,1.9-6,3.2-9.5,4.6c-2.1,0.9-4.4,1.8-6.5,2.8c-5.5,2.7-12.9,6.5-12.9,6.5l-1.8,0.9l0,0c-1.8,0.9-3.3,1.6-4.4,2.2
		c-9.4,4.7-14.8,9.6-20.2,18c-4.6,7.3-5.8,16.3-6.6,22.9c-1.1,8.7-2.1,17.3-1.1,25.8c1.1,10.2,4.7,19.6,8.2,28.7
		c10.3,26.9,21.9,57.3,43,80.3C136.9,320.4,145.1,326.3,153.5,329.6z M363.8,389.1c-24.2,0.5-45,0.9-67,0.9c-23.9,0-47-0.5-74.5-1.6
		c0.2-17.6,0.1-26.1,0-34.4c-0.1-8.2-0.2-16.7,0-34.1c13.2,0.1,25-0.5,37.6-1c17.5-0.8,35.8-1.6,60.7-1c20.6,0.5,37.3,0,53-0.5
		c9.9-0.3,19.2-0.6,28.6-0.6c8.2,0,15.5,0.2,22.8,0.7c1.4,17.3,1.1,26,0.7,35.2c-0.4,8.9-0.7,18.1,0.7,35.4
		C402,388.3,381.8,388.7,363.8,389.1z M315.8,170.8c-1.5-2.3-3.1-4.6-4.7-6.9l26.1,0.6c-1.8,2.7-3.8,5.4-5.6,7.5
		c-5,0.1-10.1,0.1-15.1,0L315.8,170.8z M331.9,193.7c-1.4,1.1-2.6,2-3.4,2.6c-2.2,0.1-6.9,0.2-10.5,0c-0.8-0.9-1.6-1.7-2.5-2.6
		c2.4-4.1,5-8.1,8-11.7C326.1,186.2,328.9,190,331.9,193.7z M339,188.1c-0.3,0.2-0.6,0.5-0.9,0.7c-2.4-2.9-4.5-5.9-6.5-9.1
		c5.7-0.1,11.5-0.2,17.2-0.4C346,182,343.1,184.7,339,188.1z M351.3,167.2c0.9,1.3,1.9,2.7,3,4c-4.2,0.2-8.4,0.4-12.6,0.5
		c1.7-2.4,3.3-4.8,4.6-7.1l3.2,0.1C350.2,165.6,350.8,166.4,351.3,167.2z M296.3,163.6l1,0c1.3,0,2.8,0,4.3,0c1.8,2.7,3.6,5.3,5.4,8
		c-4.6-0.1-9.3-0.3-13.9-0.6c-0.1-0.1-0.1-0.1-0.2-0.2C293.8,168.6,295.2,165.7,296.3,163.6z M305,183.1c-1.3-1.3-2.6-2.5-3.9-3.8
		c4.8,0.2,9.6,0.3,14.4,0.4c-2,2.6-3.9,5.4-5.6,8.2C308.2,186.3,306.6,184.7,305,183.1z M284,274.5c-6.4-3.8-7.7-15.6-7.9-22.3
		c-0.4-11.3,3-22.7,9.1-30.3c8.2-10.4,22.3-17,36-17l2.5,0c1.4,0,2.8,0,4.2,0c1.4,0,2.8,0,4.1,0c3.7,0,7.9,0.2,11.8,1.3
		c6.6,2,12.6,5.7,17.2,10.6c8.8,9.3,13.3,25,11.9,41.8c-0.3,3.4-1.8,12.5-3.2,15.9c-4.4,0-8.8,0-13.2,0c2.9-6,4-13.2,3.4-18.8
		c-1-10.1-3.4-22.9-12.1-31.8c-5.6-5.7-13.9-9-22.7-9c-9,0-17.6,3.4-23.7,9.3c-9,8.8-13.7,20-12.6,30.1c0.8,7.6,3.4,14.5,7.7,20.4
		c-0.4,0-0.7,0-1.1,0c-0.1,0-0.1,0-0.2,0c-3.1,0-6.3-0.1-9.4,0c-0.3,0-0.5,0-0.8,0C284.9,274.8,284.3,274.6,284,274.5z M327.2,274.7
		c-6.7,0-13.4,0.1-20.1,0.1c-5.9-5.8-9.3-12.9-10.2-21.2c-0.8-7.7,3-16.5,10.3-23.7c4.6-4.5,11.2-7.1,18.1-7.1
		c6.7,0,12.9,2.4,17.1,6.6c7,7.1,8.9,18.2,9.9,27.1c0.6,5.4-1.2,13.4-4.9,18C340.7,274.6,334,274.6,327.2,274.7z M243,287.8
		c8.8-5,20-5.1,29.8-5c4.1,0,8.3,0,12.4,0c0,0,0.1,0,0.1,0l0.3,0c1.6-0.1,3.3,0,4.9,0c1.7,0,3.4,0,5.2,0c3.1,0,6.3,0.1,9.4,0
		c7.4,0,14.8-0.1,22.2-0.1c7.4,0,14.8-0.1,22.1-0.1c3.3,0.2,7.1,0.2,10.9,0.1c3.7-0.1,7.1-0.2,11,0.1c0.5,0,0.9-0.1,1.4-0.2
		c2.3,0,4.7,0,7,0c5.7,0,11.1-0.1,16.4,0.8c12.7,2.3,23,12.6,27.1,26.3c-6.7-0.4-13.5-0.6-21.1-0.6c-9.5,0-18.9,0.3-28.8,0.6
		c-15.6,0.5-32.1,1-52.5,0.5c-25.2-0.6-43.7,0.2-61.3,1c-11.3,0.5-22,1-33.6,1c-0.3-0.6-0.6-1.2-0.9-1.9
		C229.8,300.5,235,292.4,243,287.8z M141.5,127.1c6.8,11.8,11.8,23.5,17,36.3c1.8,4.5,3.5,9.6,5.1,14.6c1.9,5.7,3.8,11.6,6,16.8
		c9.1,21,16.1,39.4,22.8,57.1c7.5,19.7,14.7,38.4,23.7,58.2c-0.3,0.7-0.6,1.3-0.9,1.9l-1,0l0,0.4l-24,7.5
		c-24-55-47.4-111.2-69.4-167c-1.3-3.3-3.1-10.4-3.5-14.4c1.3-0.6,2.6-1.3,3.9-1.9c4.9-2.4,9.8-4.8,12.3-6c0.1,0,0.2-0.1,0.4-0.1
		C136.6,129.4,139.1,128.4,141.5,127.1z M85.4,201.5c-0.8-7.7,0-15.4,1.1-24c1-7.6,2.1-14.3,5.5-19.7c4.5-7.2,9-11.1,17.1-15.2
		c0.3-0.2,0.7-0.3,1-0.5c0.9,5.3,2.7,11.3,3.6,13.6c22,55.7,45.3,111.7,69.3,166.6c-9.5,3.1-18.4,3.1-26.6-0.1
		c-7.3-2.8-14.5-8.1-21.9-16.2c-20.1-21.9-31.4-51.6-41.4-77.8C89.8,219.6,86.4,210.6,85.4,201.5z"/>
	<path fill="#684C4B" d="M328.2,115.7l-7.9,0.5c0.5,7.6,0.2,15.4-0.7,23l7.8,1C328.4,132,328.7,123.8,328.2,115.7z"/>
	<path fill="#684C4B" d="M359.5,141.7c3.9-5,7.2-8.4,10.3-11.7c2.5-2.6,5.1-5.4,8.1-8.9l-6-5c-2.8,3.3-5.2,5.8-7.7,8.5
		c-3.3,3.4-6.7,7-10.8,12.3L359.5,141.7z"/>
	<path fill="#684C4B" d="M276.8,115.6l-7,3.6c2.2,4.3,4.4,7.4,7,10.9c2.3,3.2,5,6.8,8.2,12.2l6.8-4c-3.4-5.7-6.2-9.5-8.6-12.9
		C280.7,122.1,278.7,119.3,276.8,115.6z"/>
</g>
</svg>
