<?xml version="1.0" encoding="utf-8"?>
<!-- Generator: Adobe Illustrator 18.0.0, SVG Export Plug-In . SVG Version: 6.00 Build 0)  -->
<!DOCTYPE svg PUBLIC "-//W3C//DTD SVG 1.1//EN" "http://www.w3.org/Graphics/SVG/1.1/DTD/svg11.dtd">
<svg version="1.1" id="Layer_1" xmlns="http://www.w3.org/2000/svg" xmlns:xlink="http://www.w3.org/1999/xlink" x="0px" y="0px"
	 width="512px" height="512px" viewBox="0 0 512 512" enable-background="new 0 0 512 512" xml:space="preserve">
<g>
	<path fill="#684C4B" d="M124.3,174.1c0.2,2.7,0.3,5.3,0,8.1c-0.1,0.7-0.3,2.7,1.1,4.3c1.6,2,4,2,4.8,2c19.6-0.4,39.4,0.4,59,2.4
		c0.8,26.3-2,53.6-4.7,80.2c-3.6,35.4-7.3,72.1-2.8,106.5c1.4,10.9,11.4,19.8,22.2,19.8c21.8,0.1,43.1,1.1,63.7,2.1
		c21.3,1,43.4,2.1,65.2,2.1c22.6,0,42.9-1.1,62-3.5c2.4-0.3,4.3-2,4.9-4.4c0.6-2.4-0.3-4.8-2.3-6.2
		c-28.3-20.1-25.9-138.7-11.7-214.9c1.8-9.9,1.1-19.8-2.1-28.4c-7-18.8-18.9-21.2-28.5-21.2c-2.6,0-5.2,0.2-7.7,0.4
		c-40.1,2.8-71.1,4.1-100.6,4.1c-31.6,0-61.1-1.5-90.2-4.7c-0.7-0.1-1.5-0.2-2.2-0.2l0,0.3c-8.5,0.6-19.3,6.5-23.3,13.8
		c-4.8,8.8-5.8,19-6.7,27.9C123.9,168.2,124.1,171.2,124.3,174.1z M246.8,135.5c29.7,0,60.9-1.3,101.2-4.1c2.3-0.2,4.7-0.3,7.1-0.3
		c9.1,0,16.2,2.7,21.1,16.1c2.7,7.3,3.3,15.7,1.7,24.2c-11.7,63-19.7,188.2,11.3,219.6c-17.4,1.9-35.9,2.9-56.4,2.9
		c-21.6,0-42.6-1-64.8-2.1c-20.7-1-42.1-2-64-2.1c-6.9,0-13.5-6-14.4-13c-4.4-33.6-0.7-69.8,2.8-104.7c3.7-36.4,7.5-74.1,2.4-109.4
		c-1.7-11.8-7.8-22.3-16.4-29.6C200.4,134.7,223,135.5,246.8,135.5z M132.1,165.5c0.9-8.6,1.8-17.5,5.8-24.9
		c3.1-5.6,12.7-9.8,17.8-9.8c15.5,2.2,28.9,16.3,31.2,32.8c0.9,6.4,1.4,12.9,1.8,19.4c-18.7-1.9-37.6-2.7-56.4-2.4
		c0.1-2.5,0-4.8-0.2-7C131.9,171,131.8,168.4,132.1,165.5z"/>
	<path fill="#684C4B" d="M280,235.9l3.1,4.2l3.2-4.1c10.8-14,23.1-29.8,29.1-48.2c3.1-9.4,2.5-16.7-1.8-21.7
		c-2.9-3.5-7.4-5.4-12.5-5.4c-3.2,0-6.3,0.7-9.2,2.1c-4.4,2.1-6.4,5.9-7.9,9.7c-4.2-5.5-9.7-10-14.1-11.2
		c-6.5-1.8-14.3,1.6-17.3,7.6c-3,5.9-1.6,12.6,0.2,18.3C258.3,204.5,270.6,223.3,280,235.9z M259.7,172.3c1.1-2.2,3.8-3.8,6.5-3.8
		c0.6,0,1.2,0.1,1.7,0.2c3.2,0.9,10,6.8,13.4,14l3.4,7.1l3.7-7c0.9-1.8,1.6-3.6,2.3-5.4c1.5-4,2.5-6.6,4.8-7.7
		c1.7-0.8,3.8-1.3,5.7-1.3c1.6,0,4.6,0.3,6.5,2.6c3,3.5,1.8,9.7,0.3,14.2c-5,15.4-14.8,28.8-24.7,41.7
		c-8.5-11.9-18.3-27.7-22.9-42.2C259,180.5,257.9,175.8,259.7,172.3z"/>
	<path fill="#684C4B" d="M231.5,268.6c35.4-0.9,75.4-1.9,108.8-0.4l0.4-7.9c-33.6-1.5-73.8-0.5-109.3,0.4l-10.6,0.3l0.2,7.9
		L231.5,268.6z"/>
	
		<rect x="222.2" y="289.1" transform="matrix(1 -5.025663e-03 5.025663e-03 1 -1.469 1.4174)" fill="#684C4B" width="118.2" height="7.9"/>
	<path fill="#684C4B" d="M280.1,326.4c4.1,0.1,8.3,0.2,12.6,0.2c3.8,0,7.6-0.1,11.4-0.3l2-0.1c9.5-0.5,27.1-1.6,35.7-0.4l1.1-7.8
		c-9.3-1.3-26.8-0.3-37.2,0.3l-2,0.1c-7.7,0.4-15.7,0.3-23.3,0.1l-57.9-1.3l-0.2,7.9L280.1,326.4z"/>
	<path fill="#684C4B" d="M348.4,355.2l-0.4-7.9c-42.4,2.3-85.4,2.6-127.9,0.9l-0.3,7.9c18.2,0.7,36.4,1.1,54.7,1.1
		C299.2,357.2,323.9,356.6,348.4,355.2z"/>
</g>
</svg>
