<?xml version="1.0" encoding="utf-8"?>
<!-- Generator: Adobe Illustrator 18.0.0, SVG Export Plug-In . SVG Version: 6.00 Build 0)  -->
<!DOCTYPE svg PUBLIC "-//W3C//DTD SVG 1.1//EN" "http://www.w3.org/Graphics/SVG/1.1/DTD/svg11.dtd">
<svg version="1.1" id="Layer_1" xmlns="http://www.w3.org/2000/svg" xmlns:xlink="http://www.w3.org/1999/xlink" x="0px" y="0px"
	 width="512px" height="512px" viewBox="0 0 512 512" enable-background="new 0 0 512 512" xml:space="preserve">
<g>
	<path fill="#684C4B" d="M387.4,358.8c-2.7-0.1-4.9-0.1-6.8-0.1l-3.5,0c-4.5,0-6.7-0.1-15.8-2.6c-11-3-19.9-8.1-25.5-14.5
		c6.8-0.5,13.8-2.5,20.4-6c8.3-4.3,15-10.3,21-16c6.4-6.1,13.6-13.5,18.7-22.1c11-18.3,12.5-41.5,4.7-70.9
		c-2.7-10.1-6.5-20.4-15.9-27.4l-5.6-4.1l-0.7,6.9c-1.8,18.5-8.1,35.8-18.3,50.2c-3.2-12.2-6.5-24.8-12.4-36.7
		c-7-14.2-16.7-25.2-28.6-32.7l-7.5-4.6l1.5,8.7c6,34.7-8.9,71.2-39,96c-3-3.4-6.5-7-12.2-7.9c-9.3-1.5-16.6,5.7-20,12.4
		c-2.6,5.2-9.1,11.3-14.3,13.8l3.2,7.2c1-0.4,2.5-0.7,4.3-0.7c5.5,0,11.4,2.2,12.9,4.2c2.5,3.2,3.5,7.2,4.5,11.5
		c0.2,0.9,0.4,1.9,0.7,2.8c2.3,9.2,6,15.6,11.6,20.2c6.6,5.4,15.3,7.7,23.6,9.9c4,1,8.1,2.1,11.8,3.5c11.3,4.2,20.4,12.1,24.9,21.6
		c4.9,10.4,5.9,15.6,1.6,24l-3.8,7.4l11.5-2.5c14.1-3,22.6-4.8,37.3-16.1c11.4-8.7,15.2-18.5,19.1-30.3l1.6-5L387.4,358.8z
		 M322.2,194.7c7.5,6.3,13.7,14.4,18.6,24.3c5.7,11.6,9,24.3,12.3,36.9c0.4,1.4,0.7,2.8,0.9,4.1c-1,1.1-1.9,2.2-2.9,3.2
		c-0.3,0.3-0.6,0.6-0.9,0.9c-3.4,3.4-7,6.6-10.8,9.5c-0.3,0.2-0.5,0.4-0.8,0.6c-1.6,1.2-3.3,2.4-5,3.5c-0.4,0.3-0.9,0.6-1.3,0.8
		c-1.5,1-3.1,1.9-4.7,2.8c-0.6,0.3-1.1,0.6-1.7,0.9c-1.5,0.8-3.1,1.6-4.7,2.4c-0.6,0.3-1.2,0.6-1.8,0.8c-1.9,0.9-3.9,1.7-5.9,2.4
		c-0.2,0.1-0.4,0.2-0.6,0.2c-1.1,0.4-2.1,0.7-3.1,1c-5.7,1.9-10.7,2.8-15.6,2.9c-0.1,0-0.2,0-0.3,0c-1.4,0-2.7-0.1-4-0.3
		c-0.5-0.1-1-0.2-1.5-0.3c-0.9-0.2-1.7-0.3-2.5-0.6c-0.5-0.1-1-0.3-1.5-0.5c-0.7-0.3-1.4-0.5-2.1-0.8c-0.5-0.2-0.9-0.5-1.4-0.7
		c-0.3-0.2-0.5-0.4-0.8-0.5C309.3,263.9,324.8,229,322.2,194.7z M367.1,388c-12,9.2-18.9,11.3-30.4,13.9c2.2-8.7-0.5-15.8-4.2-23.7
		c-5.3-11.3-16-20.7-29.2-25.7c-4.1-1.5-8.4-2.6-12.6-3.7c-7.9-2.1-15.4-4-20.6-8.3c-4.2-3.5-7.1-8.5-9-16c-0.2-0.9-0.4-1.8-0.7-2.7
		c-1.1-4.7-2.4-10-5.9-14.6c-2.6-3.3-7.6-5.5-12.6-6.6c3-3,5.6-6.3,7.3-9.5c2.1-4.1,6.5-9.1,11.8-8.2c2.9,0.4,5,2.5,7.2,5l-0.1,0.1
		l2.8,2.8c0.8,0.9,1.7,1.8,2.7,2.6c5.1,4.2,12.6,6.7,20.8,6.7l0,0c0,0,0,0,0,0h0.4c5.5-0.1,11.2-1.2,17.7-3.3
		c1.1-0.4,2.2-0.7,3.3-1.1c0.2-0.1,0.3-0.1,0.5-0.2c2.2-0.8,4.5-1.8,6.6-2.7c0.6-0.3,1.1-0.6,1.7-0.8c1.8-0.8,3.6-1.7,5.3-2.7
		c0.5-0.3,1.1-0.6,1.6-0.9c1.8-1,3.5-2,5.2-3.1c0.5-0.3,1-0.6,1.4-0.9c1.7-1.1,3.4-2.3,5.1-3.6c0.4-0.3,0.8-0.6,1.3-0.9
		c1.7-1.3,3.3-2.6,5-4c0.4-0.3,0.7-0.6,1.1-0.9c1.7-1.5,3.4-3.1,5.1-4.8c0.2-0.2,0.4-0.3,0.5-0.5c1.7-1.8,3.4-3.6,5.1-5.5l1.1-1.3
		l0-0.1c1.4-1.7,2.8-3.4,4.1-5.2c9.7-13.5,16.3-29.5,19.1-46.6c3.9,5.1,6.1,11.5,7.7,17.9c7.2,27.2,5.9,48.4-3.9,64.8
		c-4.7,7.8-11.4,14.7-17.4,20.5c-5.6,5.4-11.8,10.9-19.2,14.7c-4.5,2.4-11.7,5.2-19.9,5.2c-1.3,0-2.6-0.1-3.9-0.2l-7.2-0.9l3.3,6.5
		c5.5,11,18,19.9,34.4,24.4c9.6,2.6,12.5,2.9,17.9,2.9l3.5,0c0.4,0,0.8,0,1.2,0C378.7,375.2,375.2,381.8,367.1,388z"/>
	<path fill="#684C4B" d="M192.1,317c-4.3-8.3-3.3-13.5,1.6-24c4.5-9.5,13.5-17.4,24.9-21.6c3.7-1.4,7.8-2.5,11.8-3.5
		c8.4-2.2,17-4.4,23.6-9.9c5.6-4.6,9.3-11,11.6-20.1c0.2-0.9,0.5-1.9,0.7-2.8c1-4.3,2-8.3,4.5-11.6c1.6-2,7.4-4.2,12.9-4.2
		c1.8,0,3.3,0.2,4.3,0.7l3.2-7.2c-5.3-2.4-11.7-8.6-14.3-13.8c-3.4-6.7-10.7-13.9-20-12.4c-5.7,0.9-9.1,4.5-12.2,7.8
		c-30.1-24.8-45-61.3-39-96l1.5-8.7l-7.5,4.6c-11.9,7.4-21.6,18.4-28.6,32.7c-5.8,11.8-9.2,24.3-12.4,36.7
		c-10.2-14.3-16.5-31.7-18.3-50.2l-0.7-6.9l-5.6,4.1c-9.4,7-13.2,17.3-15.9,27.4c-7.8,29.4-6.2,52.5,4.7,70.9
		c5.2,8.6,12.4,16,18.7,22.1c6,5.8,12.7,11.7,21,16c6.6,3.5,13.6,5.5,20.4,6c-5.6,6.3-14.5,11.4-25.5,14.5
		c-9.1,2.5-11.3,2.6-15.8,2.6l-3.5,0c-1.8,0-4,0-6.8,0.1l-5.3,0.2l1.6,5c3.9,11.8,7.7,21.6,19.1,30.3c14.7,11.3,23.2,13.1,37.3,16.1
		l11.5,2.5L192.1,317z M178.2,130.6c4.9-9.9,11.2-18.1,18.6-24.3c-2.6,34.3,12.9,69.2,42.1,93.6c-0.3,0.2-0.6,0.4-0.9,0.6
		c-0.4,0.2-0.8,0.4-1.2,0.7c-0.8,0.4-1.6,0.7-2.5,1c-0.4,0.1-0.7,0.3-1.1,0.4c-1.2,0.4-2.5,0.6-3.9,0.8c0,0-0.1,0-0.1,0
		c-1.5,0.2-3.1,0.3-4.8,0.3c-4.1-0.1-8.4-0.8-13.3-2.2c-1.5-0.5-3.1-1-4.8-1.6c-0.1,0-0.2-0.1-0.3-0.1c0,0-0.1,0-0.1,0
		c-2.2-0.8-4.3-1.7-6.5-2.7c-0.5-0.2-1-0.5-1.5-0.7c-1.7-0.8-3.4-1.6-5-2.5c-0.5-0.3-1-0.5-1.4-0.8c-1.7-0.9-3.3-1.9-4.9-2.9
		c-0.4-0.2-0.8-0.5-1.2-0.7c-1.8-1.1-3.5-2.4-5.1-3.6c-0.2-0.2-0.5-0.3-0.7-0.5c-3.8-2.9-7.4-6.1-10.8-9.5c-0.4-0.4-0.7-0.7-1-1.1
		c-1-1-1.9-2-2.8-3.1c0.2-1.4,0.6-2.8,1-4.4C169.2,154.9,172.5,142.2,178.2,130.6z M182.3,313.4c-11.5-2.5-18.4-4.6-30.4-13.9
		c-8.1-6.2-11.6-12.8-14.7-21.4c0.4,0,0.8,0,1.2,0l3.5,0c5.3,0,8.3-0.2,17.9-2.9c16.4-4.5,28.9-13.4,34.4-24.4l3.3-6.5l-7.2,0.9
		c-1.3,0.2-2.6,0.2-3.9,0.2c-8.2,0-15.4-2.8-19.9-5.2c-7.4-3.9-13.6-9.4-19.2-14.7c-6-5.7-12.7-12.6-17.4-20.5
		c-9.8-16.4-11.1-37.6-3.9-64.8c1.7-6.4,3.8-12.8,7.7-17.9c2.8,17.1,9.3,33.1,19.1,46.6c1.3,1.8,2.7,3.5,4.1,5.2l0,0.1l1.1,1.3
		c1.6,1.9,3.3,3.7,5,5.5c0.2,0.2,0.5,0.4,0.7,0.7c1.6,1.6,3.2,3.2,4.9,4.7c0.4,0.3,0.8,0.7,1.2,1c1.6,1.4,3.2,2.7,4.9,4
		c0.4,0.3,0.9,0.7,1.3,1c1.7,1.2,3.3,2.4,5.1,3.5c0.5,0.3,1,0.6,1.4,0.9c1.7,1.1,3.5,2.1,5.2,3.1c0.5,0.3,1,0.6,1.6,0.9
		c1.8,1,3.6,1.9,5.5,2.8c0.5,0.2,1,0.5,1.5,0.7c2.4,1.1,4.7,2.1,7.2,3c3.9,1.5,7.6,2.5,11,3.3c3.5,0.7,6.7,1.1,10,1.1l0.2,0l0.2,0
		c0,0,0,0,0,0h0c2.8,0,5.5-0.3,8.1-0.8c3.2-0.7,6.1-1.7,8.7-3.1c1.5-0.8,2.8-1.7,4-2.7c0.9-0.8,1.8-1.6,2.6-2.5l2.8-2.9l-0.1-0.1
		c2.3-2.5,4.4-4.6,7.2-5c5.2-0.8,9.7,4.1,11.8,8.2c1.6,3.2,4.2,6.5,7.3,9.5c-5,1-10,3.3-12.6,6.6c-3.6,4.6-4.8,9.9-5.9,14.6
		c-0.2,0.9-0.4,1.8-0.6,2.7c-1.9,7.5-4.8,12.5-9,16c-5.3,4.3-12.7,6.3-20.6,8.3c-4.2,1.1-8.5,2.2-12.6,3.7
		c-13.3,5-23.9,14.3-29.2,25.7C182.8,297.6,180.1,304.7,182.3,313.4z"/>
	<path fill="#684C4B" d="M260.7,209.6c0.3,0,0.6,0.1,0.9,0.1c0.9,0,1.8-0.2,2.5-0.7c2.2-1.3,3-4.1,1.8-6.5c-0.2-0.5-0.6-1-0.9-1.3
		l-0.8-1.3l-0.8-0.5c-1.5-0.9-3.4-0.9-5,0c-1.6,0.9-2.7,2.7-2.7,4.5C255.7,206.7,257.8,209.1,260.7,209.6z"/>
	<path fill="#684C4B" d="M263.6,288.9l-0.8-1.3l-0.8-0.5c-1.5-0.9-3.4-0.9-5,0.1c-1.6,0.9-2.7,2.7-2.7,4.5c0,2.7,2.1,5.1,4.9,5.6
		c0.3,0,0.6,0.1,0.9,0.1c1.1,0,2-0.4,2.5-0.7c2.2-1.3,3-4.1,1.8-6.5C264.3,289.7,264,289.3,263.6,288.9z"/>
	<path fill="#684C4B" d="M107.9,163.2l-7.6-1.9c-3.4,13.9-1.5,29.1,5.2,41.8l7-3.7C106.6,188.4,105,175.3,107.9,163.2z"/>
	<path fill="#684C4B" d="M94.4,177.9l-7.7-1.6c-0.9,4.2,0.1,8.3,0.8,11.6c1.5,6.4,3,13,6.1,19.1l7-3.6c-2.7-5.3-4.1-11.4-5.5-17.3
		C94.5,183.3,93.9,180.4,94.4,177.9z"/>
	<path fill="#684C4B" d="M401.8,303.9l2.3,7.5c2.7-0.8,4.2-3.1,5-4.2c6.8-10.1,9.9-22.4,8.9-34.5l-7.8,0.6
		c0.9,10.4-1.9,20.8-7.6,29.5C401.9,303.8,401.8,304,401.8,303.9z"/>
	<path fill="#684C4B" d="M417.9,296.9c-1.2,10-6.9,19.4-15.4,25l4.4,6.5c10.3-6.9,17.3-18.3,18.8-30.6L417.9,296.9z"/>
	<path fill="#684C4B" d="M266.8,162.5c1.8,2,3.5,3.9,5,5.7c3.1,3.7,7,8.4,12.5,10.9l3,1.4l1.9-2.7c5.4-7.9,11.7-15.2,18.7-21.7
		l1.9-1.7c2.8-2.5,5.7-5.2,8.1-8.4c5.6-7.3,7.9-17.2,6.2-26.3c-1-5.5-3.4-9.8-6.9-12.4c-6.1-4.6-16.2-3.6-23.1,2
		c-3.2,2.6-7,7.8-9.7,11.8l-7-11.3l-0.4-0.5c-1.6-1.9-4.4-4.3-8.2-5.1c-1.5-0.3-3.2-0.5-5-0.5c-2.6,0-7.3,0.4-10.5,3.3
		C233.3,124.8,254.3,148.4,266.8,162.5z M258.7,112.6c0.7-0.6,2.6-1.2,5.2-1.2c1.1,0,2.3,0.1,3.3,0.3c1.7,0.4,3,1.5,3.8,2.4
		l13.5,21.9l3.3-5.6c1.9-3.2,7.7-12.2,11.3-15.1c4.1-3.4,10.1-4.3,13.4-1.8c2.4,1.8,3.4,5.1,3.9,7.6c1.3,7-0.5,14.5-4.7,20.1
		c-2,2.6-4.5,4.9-7.1,7.3l-1.9,1.8c-6.6,6.1-12.5,12.8-17.8,20c-2.6-1.9-4.9-4.7-7-7.1c-1.5-1.8-3.2-3.7-5.1-5.8
		C257.2,139.8,245.5,124.5,258.7,112.6z"/>
</g>
</svg>
